<svg width="503" height="335" viewBox="0 0 503 335" fill="none" xmlns="http://www.w3.org/2000/svg">
<g clip-path="url(#clip0_40_8965)">
<path d="M307.569 86.1849L480.339 -26.696L263.973 -80.2831L307.569 86.1849Z" stroke="#DDDDDD" stroke-width="0.7021" stroke-miterlimit="10" stroke-linecap="round" stroke-linejoin="round"/>
<path d="M169.501 70.7632L136.619 241.741L277.572 193.259L169.501 70.7632Z" stroke="#DDDDDD" stroke-width="0.7021" stroke-miterlimit="10" stroke-linecap="round" stroke-linejoin="round"/>
<path d="M586.039 68.4203L480.338 -26.6959L457.363 178.665L586.039 68.4203Z" stroke="#DDDDDD" stroke-width="0.3511" stroke-miterlimit="10" stroke-linecap="round" stroke-linejoin="round"/>
<path d="M457.363 178.665L658.615 302.349L626.773 16.172L457.363 178.665Z" stroke="#DDDDDD" stroke-width="0.7021" stroke-miterlimit="10" stroke-linecap="round" stroke-linejoin="round"/>
<path d="M277.572 193.259L457.363 178.665L307.568 86.1849L277.572 193.259Z" stroke="#DDDDDD" stroke-width="0.7021" stroke-miterlimit="10" stroke-linecap="round" stroke-linejoin="round"/>
<path d="M598.176 265.196L381.352 328.733L457.364 178.665L598.176 265.196Z" stroke="#DDDDDD" stroke-width="0.7021" stroke-miterlimit="10" stroke-linecap="round" stroke-linejoin="round"/>
<path d="M277.573 193.259L385.144 87.7749L246.795 24.0963L277.573 193.259Z" stroke="#DDDDDD" stroke-width="0.7021" stroke-miterlimit="10" stroke-linecap="round" stroke-linejoin="round"/>
<path d="M385.144 87.7748L457.363 178.665L277.572 193.259L385.144 87.7748Z" stroke="#DDDDDD" stroke-width="0.7021" stroke-miterlimit="10" stroke-linecap="round" stroke-linejoin="round"/>
<path d="M385.145 87.7748L626.774 16.172H414.733L385.145 87.7748Z" stroke="#DDDDDD" stroke-width="0.3511" stroke-miterlimit="10" stroke-linecap="round" stroke-linejoin="round"/>
<path d="M457.363 178.665L749.709 49.8271L598.175 265.196L457.363 178.665Z" stroke="#DDDDDD" stroke-width="0.7021" stroke-miterlimit="10" stroke-linecap="round" stroke-linejoin="round"/>
<path d="M169.285 71.0143L307.568 86.185L246.795 24.0963L169.285 71.0143Z" stroke="#DDDDDD" stroke-width="0.7021" stroke-miterlimit="10" stroke-linecap="round" stroke-linejoin="round"/>
<path d="M385.934 87.8084L586.038 68.4203L530.43 186.255L385.934 87.8084Z" stroke="#DDDDDD" stroke-width="0.3511" stroke-miterlimit="10" stroke-linecap="round" stroke-linejoin="round"/>
<path d="M277.572 193.259L231.355 334.849L381.35 328.733L277.572 193.259Z" stroke="#DDDDDD" stroke-width="0.3511" stroke-miterlimit="10" stroke-linecap="round" stroke-linejoin="round"/>
<path d="M526.58 263.916L381.352 328.733L457.364 178.665L526.58 263.916Z" stroke="#DDDDDD" stroke-width="0.3511" stroke-miterlimit="10" stroke-linecap="round" stroke-linejoin="round"/>
<path d="M161.982 233.357L244.208 291.479L169.286 71.0143" stroke="#DDDDDD" stroke-width="0.5" stroke-miterlimit="10" stroke-linecap="round" stroke-linejoin="round"/>
<path d="M356.172 116.192L381.351 328.733" stroke="#DDDDDD" stroke-width="0.3511" stroke-miterlimit="10" stroke-linecap="round" stroke-linejoin="round"/>
<path d="M526.58 263.916L277.572 193.259" stroke="#DDDDDD" stroke-width="0.3511" stroke-miterlimit="10" stroke-linecap="round" stroke-linejoin="round"/>
<path d="M246.795 24.0963L263.972 -80.283L226.332 -114.783L244.632 -181.893" stroke="#DDDDDD" stroke-width="0.3511" stroke-miterlimit="10" stroke-linecap="round" stroke-linejoin="round"/>
<path d="M367.469 -54.6443L385.935 87.8083" stroke="#DDDDDD" stroke-width="0.3511" stroke-miterlimit="10" stroke-linecap="round" stroke-linejoin="round"/>
<path d="M136.619 241.742L307.568 86.1851L367.468 -54.6442L500.593 -127.318L480.338 -26.6959" stroke="#DDDDDD" stroke-width="0.3511" stroke-miterlimit="10" stroke-linecap="round" stroke-linejoin="round"/>
<path d="M244.864 -77.1451L225.333 15.7369L160.109 52.965L244.864 -77.1451Z" stroke="#DDDDDD" stroke-width="0.7021" stroke-miterlimit="10" stroke-linecap="round" stroke-linejoin="round"/>
<path d="M114.093 163.67L136.619 75.9846L47.7051 108.677L107.863 213.099" stroke="#DDDDDD" stroke-width="0.7021" stroke-miterlimit="10" stroke-linecap="round" stroke-linejoin="round"/>
<path d="M40.7422 93.331L133.948 55.1406L186.769 -37.5155L40.7422 93.331Z" stroke="#DDDDDD" stroke-width="0.3511" stroke-miterlimit="10" stroke-linecap="round" stroke-linejoin="round"/>
<path d="M173.636 71.0812C173.636 73.1146 171.998 74.763 169.976 74.763C167.955 74.763 166.316 73.1146 166.316 71.0812C166.316 69.0479 167.955 67.3994 169.976 67.3994C171.998 67.4078 173.636 69.0479 173.636 71.0812Z" fill="#CCCCCC"/>
<path d="M281.232 193.259C281.232 195.292 279.593 196.941 277.572 196.941C275.551 196.941 273.912 195.292 273.912 193.259C273.912 191.225 275.551 189.577 277.572 189.577C279.593 189.585 281.232 191.234 281.232 193.259Z" fill="#CCCCCC"/>
<path d="M389.586 87.8083C389.586 89.8417 387.947 91.4901 385.926 91.4901C383.904 91.4901 382.266 89.8417 382.266 87.8083C382.266 85.7749 383.904 84.1265 385.926 84.1265C387.955 84.1265 389.586 85.7749 389.586 87.8083Z" fill="#CCCCCC"/>
<path d="M228.994 15.7369C228.994 17.7702 227.355 19.4187 225.334 19.4187C223.313 19.4187 221.674 17.7702 221.674 15.7369C221.674 13.7035 223.313 12.0551 225.334 12.0551C227.355 12.0634 228.994 13.7119 228.994 15.7369Z" fill="#CCCCCC"/>
<path d="M51.3572 108.677C51.3572 110.711 49.7185 112.359 47.6971 112.359C45.6758 112.359 44.0371 110.711 44.0371 108.677C44.0371 106.644 45.6758 104.996 47.6971 104.996C49.7268 104.996 51.3572 106.644 51.3572 108.677Z" fill="#CCCCCC"/>
<path d="M461.023 178.665C461.023 180.699 459.385 182.347 457.363 182.347C455.342 182.347 453.703 180.699 453.703 178.665C453.703 176.632 455.342 174.984 457.363 174.984C459.385 174.984 461.023 176.632 461.023 178.665Z" fill="#CCCCCC"/>
<path d="M311.228 86.185C311.228 88.2183 309.59 89.8668 307.568 89.8668C305.547 89.8668 303.908 88.2183 303.908 86.185C303.908 84.1516 305.547 82.5032 307.568 82.5032C309.59 82.5032 311.228 84.1516 311.228 86.185Z" fill="#CCCCCC"/>
<path d="M140.279 241.741C140.279 243.775 138.64 245.423 136.619 245.423C134.598 245.423 132.959 243.775 132.959 241.741C132.959 239.708 134.598 238.06 136.619 238.06C138.64 238.06 140.279 239.708 140.279 241.741Z" fill="#CCCCCC"/>
<path d="M133.949 56.9816C134.96 56.9816 135.779 56.1574 135.779 55.1407C135.779 54.124 134.96 53.2998 133.949 53.2998C132.938 53.2998 132.119 54.124 132.119 55.1407C132.119 56.1574 132.938 56.9816 133.949 56.9816Z" fill="#CCCCCC"/>
<path d="M356.172 118.033C357.182 118.033 358.002 117.208 358.002 116.192C358.002 115.175 357.182 114.351 356.172 114.351C355.161 114.351 354.342 115.175 354.342 116.192C354.342 117.208 355.161 118.033 356.172 118.033Z" fill="#CCCCCC" stroke="#DDDDDD" stroke-miterlimit="10"/>
<path d="M237.943 150.717C238.954 150.717 239.773 149.893 239.773 148.876C239.773 147.859 238.954 147.035 237.943 147.035C236.933 147.035 236.113 147.859 236.113 148.876C236.113 149.893 236.933 150.717 237.943 150.717Z" fill="#CCCCCC" stroke="#DDDDDD" stroke-miterlimit="10"/>
<path d="M370.338 218.529C370.338 219.542 369.523 220.37 368.508 220.37C367.493 220.37 366.678 219.55 366.678 218.529C366.678 217.517 367.493 216.688 368.508 216.688C369.523 216.688 370.338 217.517 370.338 218.529Z" fill="#CCCCCC"/>
<path d="M318.931 172.582C320.536 172.582 320.536 170.072 318.931 170.072C317.325 170.072 317.325 172.582 318.931 172.582Z" fill="#DDDDDD"/>
<path d="M356.995 15.9544C358.601 15.9544 358.601 13.4441 356.995 13.4441C355.39 13.4441 355.39 15.9544 356.995 15.9544Z" fill="#DDDDDD"/>
<path d="M177.07 174.674C178.676 174.674 178.676 172.164 177.07 172.164C175.465 172.164 175.457 174.674 177.07 174.674Z" fill="#DDDDDD"/>
<path d="M65.6564 246.377C67.2618 246.377 67.2618 243.867 65.6564 243.867C64.051 243.867 64.0427 246.377 65.6564 246.377Z" fill="#DDDDDD"/>
<path d="M28.9716 204.605C30.5771 204.605 30.5771 202.095 28.9716 202.095C27.3662 202.095 27.3662 204.605 28.9716 204.605Z" fill="#DDDDDD"/>
<path d="M23.4416 258.904C25.047 258.904 25.047 256.393 23.4416 256.393C21.8361 256.393 21.8278 258.904 23.4416 258.904Z" fill="#DDDDDD"/>
<path d="M416.512 207.392C418.117 207.392 418.117 204.882 416.512 204.882C414.906 204.882 414.898 207.392 416.512 207.392Z" fill="#DDDDDD"/>
<path d="M481.561 114.803C483.166 114.803 483.166 112.292 481.561 112.292C479.955 112.292 479.947 114.803 481.561 114.803Z" fill="#DDDDDD"/>
<path d="M339.692 245.674C341.298 245.674 341.298 243.164 339.692 243.164C338.087 243.164 338.087 245.674 339.692 245.674Z" fill="#DDDDDD"/>
<path d="M211.667 98.0924C213.272 98.0924 213.272 95.582 211.667 95.582C210.062 95.582 210.062 98.0924 211.667 98.0924Z" fill="#DDDDDD"/>
<path d="M458.028 270.041C459.634 270.041 459.634 267.531 458.028 267.531C456.423 267.531 456.423 270.041 458.028 270.041Z" fill="#DDDDDD"/>
<path d="M5.44837 77.0724C8.65922 77.0724 8.66754 72.0518 5.44837 72.0518C2.23752 72.0518 2.2292 77.0724 5.44837 77.0724Z" fill="#DDDDDD"/>
<path d="M108.562 263.64C111.773 263.64 111.781 258.619 108.562 258.619C105.351 258.619 105.342 263.64 108.562 263.64Z" fill="#DDDDDD"/>
<path d="M437.966 109.096C441.177 109.096 441.185 104.075 437.966 104.075C434.755 104.075 434.747 109.096 437.966 109.096Z" fill="#DDDDDD"/>
<path d="M201.984 206.555C205.194 206.555 205.203 201.534 201.984 201.534C198.773 201.534 198.764 206.555 201.984 206.555Z" fill="#DDDDDD"/>
<path d="M204.745 137.145C205.552 137.145 205.552 135.889 204.745 135.889C203.947 135.889 203.947 137.145 204.745 137.145Z" fill="#DDDDDD"/>
<path d="M391.599 256.887C392.406 256.887 392.406 255.632 391.599 255.632C390.792 255.632 390.792 256.887 391.599 256.887Z" fill="#DDDDDD"/>
<path d="M374.988 165.687C375.795 165.687 375.795 164.432 374.988 164.432C374.181 164.432 374.181 165.687 374.988 165.687Z" fill="#DDDDDD"/>
<path d="M70.4977 201.191C71.3046 201.191 71.3046 199.936 70.4977 199.936C69.6909 199.936 69.6909 201.191 70.4977 201.191Z" fill="#DDDDDD"/>
<path d="M104.402 233.215C105.209 233.215 105.209 231.96 104.402 231.96C103.603 231.96 103.603 233.215 104.402 233.215Z" fill="#DDDDDD"/>
<path d="M42.8138 219.985C43.6206 219.985 43.6206 218.73 42.8138 218.73C42.0152 218.73 42.0152 219.985 42.8138 219.985Z" fill="#DDDDDD"/>
<path d="M102.332 132.969C103.139 132.969 103.139 131.714 102.332 131.714C101.525 131.714 101.525 132.969 102.332 132.969Z" fill="#DDDDDD"/>
<path d="M109.252 177.527C110.059 177.527 110.059 176.272 109.252 176.272C108.445 176.272 108.445 177.527 109.252 177.527Z" fill="#DDDDDD"/>
<path d="M145.238 164.992C146.045 164.992 146.045 163.737 145.238 163.737C144.431 163.737 144.431 164.992 145.238 164.992Z" fill="#DDDDDD"/>
<path d="M88.4905 21.904C89.6967 21.904 89.6967 20.0212 88.4905 20.0212C87.2844 20.0212 87.2844 21.904 88.4905 21.904Z" fill="#DDDDDD"/>
<path d="M28.2825 28.5479C29.0894 28.5479 29.0894 27.2927 28.2825 27.2927C27.484 27.2927 27.484 28.5479 28.2825 28.5479Z" fill="#DDDDDD"/>
<path d="M104.402 58.4877C105.209 58.4877 105.209 57.2325 104.402 57.2325C103.603 57.2325 103.603 58.4877 104.402 58.4877Z" fill="#DDDDDD"/>
<path d="M17.2114 155.947C18.0183 155.947 18.0183 154.692 17.2114 154.692C16.4129 154.692 16.4045 155.947 17.2114 155.947Z" fill="#DDDDDD"/>
<path d="M438.656 42.4718C439.463 42.4718 439.463 41.2167 438.656 41.2167C437.849 41.2167 437.849 42.4718 438.656 42.4718Z" fill="#DDDDDD"/>
<path d="M401.283 66.8388C402.089 66.8388 402.089 65.5836 401.283 65.5836C400.484 65.5836 400.484 66.8388 401.283 66.8388Z" fill="#DDDDDD"/>
<path d="M269.105 233.909C269.912 233.909 269.912 232.654 269.105 232.654C268.306 232.654 268.306 233.909 269.105 233.909Z" fill="#DDDDDD"/>
<path d="M240.74 219.985C241.547 219.985 241.547 218.73 240.74 218.73C239.933 218.73 239.933 219.985 240.74 219.985Z" fill="#DDDDDD"/>
<path d="M241.429 167.779C242.236 167.779 242.236 166.524 241.429 166.524C240.623 166.524 240.623 167.779 241.429 167.779Z" fill="#DDDDDD"/>
<path d="M276.025 96.7702C276.832 96.7702 276.832 95.515 276.025 95.515C275.226 95.515 275.226 96.7702 276.025 96.7702Z" fill="#DDDDDD"/>
<path d="M270.494 16.0214C271.301 16.0214 271.301 14.7662 270.494 14.7662C269.687 14.7662 269.687 16.0214 270.494 16.0214Z" fill="#DDDDDD"/>
<path d="M237.279 52.9148C238.086 52.9148 238.086 51.6597 237.279 51.6597C236.472 51.6597 236.472 52.9148 237.279 52.9148Z" fill="#DDDDDD"/>
<path d="M37.2829 165.687C38.0898 165.687 38.0898 164.432 37.2829 164.432C36.476 164.432 36.476 165.687 37.2829 165.687Z" fill="#DDDDDD"/>
<path d="M0.598915 226.947C1.40579 226.947 1.40579 225.692 0.598915 225.692C-0.199638 225.692 -0.199638 226.947 0.598915 226.947Z" fill="#DDDDDD"/>
<path d="M80.6288 277.396C80.3959 277.162 80.1713 276.936 79.9384 276.702C79.8801 276.643 79.8136 276.602 79.7387 276.568C79.6639 276.526 79.5807 276.509 79.4975 276.518C79.4143 276.518 79.3311 276.535 79.2563 276.568C79.1814 276.593 79.1149 276.635 79.0566 276.702C78.9485 276.819 78.8653 276.978 78.8736 277.145C78.8819 277.313 78.9402 277.472 79.0566 277.589C79.2895 277.823 79.5141 278.049 79.747 278.283C79.8053 278.342 79.8718 278.384 79.9467 278.417C80.0215 278.459 80.1047 278.476 80.1879 278.467C80.2711 278.467 80.3543 278.451 80.4291 278.417C80.504 278.392 80.5705 278.35 80.6288 278.283C80.7369 278.166 80.8201 278.007 80.8118 277.84C80.8035 277.673 80.7452 277.514 80.6288 277.396Z" fill="#DDDDDD"/>
</g>
<defs>
<clipPath id="clip0_40_8965">
<rect width="750" height="543" fill="white" transform="translate(0 -208)"/>
</clipPath>
</defs>
</svg>
