<svg width="633" height="478" viewBox="0 0 633 478" fill="none" xmlns="http://www.w3.org/2000/svg">
<g clip-path="url(#clip0_5_40598)">
<path d="M281.142 222.902L83.4928 94.0138L331.016 32.8279L281.142 222.902Z" stroke="#DDDDDD" stroke-width="0.7021" stroke-miterlimit="10" stroke-linecap="round" stroke-linejoin="round"/>
<path d="M439.09 205.293L476.708 400.517L315.457 345.159L439.09 205.293Z" stroke="#DDDDDD" stroke-width="0.7021" stroke-miterlimit="10" stroke-linecap="round" stroke-linejoin="round"/>
<path d="M-37.4282 202.618L83.4929 94.0138L109.776 328.496L-37.4282 202.618Z" stroke="#DDDDDD" stroke-width="0.3511" stroke-miterlimit="10" stroke-linecap="round" stroke-linejoin="round"/>
<path d="M109.776 328.496L-120.456 469.719L-84.0285 142.961L109.776 328.496Z" stroke="#DDDDDD" stroke-width="0.7021" stroke-miterlimit="10" stroke-linecap="round" stroke-linejoin="round"/>
<path d="M315.457 345.159L109.776 328.496L281.142 222.902L315.457 345.159Z" stroke="#DDDDDD" stroke-width="0.7021" stroke-miterlimit="10" stroke-linecap="round" stroke-linejoin="round"/>
<path d="M-51.3122 427.298L196.734 499.844L109.776 328.496L-51.3122 427.298Z" stroke="#DDDDDD" stroke-width="0.7021" stroke-miterlimit="10" stroke-linecap="round" stroke-linejoin="round"/>
<path d="M315.457 345.159L192.395 224.717L350.667 152.009L315.457 345.159Z" stroke="#DDDDDD" stroke-width="0.7021" stroke-miterlimit="10" stroke-linecap="round" stroke-linejoin="round"/>
<path d="M192.395 224.717L109.776 328.496L315.457 345.159L192.395 224.717Z" stroke="#DDDDDD" stroke-width="0.7021" stroke-miterlimit="10" stroke-linecap="round" stroke-linejoin="round"/>
<path d="M192.395 224.717L-84.0286 142.961H158.546L192.395 224.717Z" stroke="#DDDDDD" stroke-width="0.3511" stroke-miterlimit="10" stroke-linecap="round" stroke-linejoin="round"/>
<path d="M109.776 328.496L-224.667 181.388L-51.3121 427.298L109.776 328.496Z" stroke="#DDDDDD" stroke-width="0.7021" stroke-miterlimit="10" stroke-linecap="round" stroke-linejoin="round"/>
<path d="M439.338 205.58L281.142 222.902L350.667 152.009L439.338 205.58Z" stroke="#DDDDDD" stroke-width="0.7021" stroke-miterlimit="10" stroke-linecap="round" stroke-linejoin="round"/>
<path d="M191.491 224.755L-37.4283 202.618L26.1868 337.162L191.491 224.755Z" stroke="#DDDDDD" stroke-width="0.3511" stroke-miterlimit="10" stroke-linecap="round" stroke-linejoin="round"/>
<path d="M315.457 345.159L368.329 506.828L196.734 499.844L315.457 345.159Z" stroke="#DDDDDD" stroke-width="0.3511" stroke-miterlimit="10" stroke-linecap="round" stroke-linejoin="round"/>
<path d="M30.5928 425.836L196.734 499.844L109.776 328.496L30.5928 425.836Z" stroke="#DDDDDD" stroke-width="0.3511" stroke-miterlimit="10" stroke-linecap="round" stroke-linejoin="round"/>
<path d="M447.693 390.944L353.626 457.308L439.338 205.58" stroke="#DDDDDD" stroke-width="0.5" stroke-miterlimit="10" stroke-linecap="round" stroke-linejoin="round"/>
<path d="M225.54 257.164L196.735 499.844" stroke="#DDDDDD" stroke-width="0.3511" stroke-miterlimit="10" stroke-linecap="round" stroke-linejoin="round"/>
<path d="M30.5929 425.836L315.457 345.159" stroke="#DDDDDD" stroke-width="0.3511" stroke-miterlimit="10" stroke-linecap="round" stroke-linejoin="round"/>
<path d="M350.667 152.009L331.016 32.8278L374.076 -6.56471L353.141 -83.1905" stroke="#DDDDDD" stroke-width="0.3511" stroke-miterlimit="10" stroke-linecap="round" stroke-linejoin="round"/>
<path d="M212.617 62.1023L191.491 224.755" stroke="#DDDDDD" stroke-width="0.3511" stroke-miterlimit="10" stroke-linecap="round" stroke-linejoin="round"/>
<path d="M476.708 400.517L281.142 222.902L212.617 62.1023L60.3211 -20.8771L83.4928 94.0138" stroke="#DDDDDD" stroke-width="0.3511" stroke-miterlimit="10" stroke-linecap="round" stroke-linejoin="round"/>
<path d="M352.875 36.4107L375.218 142.464L449.834 184.971L352.875 36.4107Z" stroke="#DDDDDD" stroke-width="0.7021" stroke-miterlimit="10" stroke-linecap="round" stroke-linejoin="round"/>
<path d="M502.477 311.375L476.708 211.255L578.425 248.584L509.605 367.812" stroke="#DDDDDD" stroke-width="0.7021" stroke-miterlimit="10" stroke-linecap="round" stroke-linejoin="round"/>
<path d="M586.39 231.061L479.762 187.455L419.335 81.66L586.39 231.061Z" stroke="#DDDDDD" stroke-width="0.3511" stroke-miterlimit="10" stroke-linecap="round" stroke-linejoin="round"/>
<path d="M319.426 14.1013L215.101 41.1783L72.7111 -35.1799L319.426 14.1013Z" stroke="#DDDDDD" stroke-width="0.3511" stroke-miterlimit="10" stroke-linecap="round" stroke-linejoin="round"/>
<path d="M434.361 205.656C434.361 207.978 436.236 209.86 438.548 209.86C440.86 209.86 442.735 207.978 442.735 205.656C442.735 203.335 440.86 201.452 438.548 201.452C436.236 201.462 434.361 203.335 434.361 205.656Z" fill="#CCCCCC"/>
<path d="M311.27 345.159C311.27 347.481 313.145 349.363 315.457 349.363C317.77 349.363 319.644 347.481 319.644 345.159C319.644 342.837 317.77 340.955 315.457 340.955C313.145 340.965 311.27 342.847 311.27 345.159Z" fill="#CCCCCC"/>
<path d="M187.314 224.755C187.314 227.077 189.188 228.959 191.501 228.959C193.813 228.959 195.688 227.077 195.688 224.755C195.688 222.434 193.813 220.551 191.501 220.551C189.179 220.551 187.314 222.434 187.314 224.755Z" fill="#CCCCCC"/>
<path d="M371.031 142.464C371.031 144.786 372.906 146.668 375.218 146.668C377.531 146.668 379.406 144.786 379.406 142.464C379.406 140.142 377.531 138.26 375.218 138.26C372.906 138.27 371.031 140.152 371.031 142.464Z" fill="#CCCCCC"/>
<path d="M574.248 248.584C574.248 250.906 576.122 252.788 578.435 252.788C580.747 252.788 582.622 250.906 582.622 248.584C582.622 246.262 580.747 244.38 578.435 244.38C576.113 244.38 574.248 246.262 574.248 248.584Z" fill="#CCCCCC"/>
<path d="M105.589 328.496C105.589 330.818 107.464 332.7 109.776 332.7C112.089 332.7 113.963 330.818 113.963 328.496C113.963 326.175 112.089 324.292 109.776 324.292C107.464 324.292 105.589 326.175 105.589 328.496Z" fill="#CCCCCC"/>
<path d="M326.838 32.8278C326.838 35.1495 328.713 37.0317 331.026 37.0317C333.338 37.0317 335.213 35.1495 335.213 32.8278C335.213 30.5061 333.338 28.6239 331.026 28.6239C328.713 28.6239 326.838 30.5157 326.838 32.8278Z" fill="#CCCCCC"/>
<path d="M276.955 222.902C276.955 225.223 278.83 227.106 281.142 227.106C283.455 227.106 285.329 225.223 285.329 222.902C285.329 220.58 283.455 218.698 281.142 218.698C278.83 218.698 276.955 220.58 276.955 222.902Z" fill="#CCCCCC"/>
<path d="M79.3152 94.0138C79.3152 96.3355 81.1899 98.2178 83.5023 98.2178C85.8148 98.2178 87.6895 96.3355 87.6895 94.0138C87.6895 91.6921 85.8148 89.8099 83.5023 89.8099C81.1804 89.8099 79.3152 91.6921 79.3152 94.0138Z" fill="#CCCCCC"/>
<path d="M472.521 400.517C472.521 402.839 474.395 404.721 476.708 404.721C479.02 404.721 480.895 402.839 480.895 400.517C480.895 398.195 479.02 396.313 476.708 396.313C474.395 396.313 472.521 398.195 472.521 400.517Z" fill="#CCCCCC"/>
<path d="M479.762 189.557C478.606 189.557 477.669 188.616 477.669 187.455C477.669 186.294 478.606 185.353 479.762 185.353C480.918 185.353 481.856 186.294 481.856 187.455C481.856 188.616 480.918 189.557 479.762 189.557Z" fill="#CCCCCC"/>
<path d="M351.009 37.0318C351.009 38.1878 351.942 39.1337 353.103 39.1337C354.254 39.1337 355.197 38.1974 355.197 37.0318C355.197 35.8661 354.264 34.9298 353.103 34.9298C351.942 34.9298 351.009 35.8757 351.009 37.0318Z" fill="#CCCCCC"/>
<path d="M225.54 259.266C224.384 259.266 223.446 258.325 223.446 257.164C223.446 256.003 224.384 255.062 225.54 255.062C226.696 255.062 227.633 256.003 227.633 257.164C227.633 258.325 226.696 259.266 225.54 259.266Z" fill="#CCCCCC" stroke="#DDDDDD" stroke-miterlimit="10"/>
<path d="M360.792 296.585C359.636 296.585 358.698 295.644 358.698 294.483C358.698 293.322 359.636 292.381 360.792 292.381C361.948 292.381 362.885 293.322 362.885 294.483C362.885 295.644 361.948 296.585 360.792 296.585Z" fill="#CCCCCC" stroke="#DDDDDD" stroke-miterlimit="10"/>
<path d="M209.334 374.013C209.334 375.169 210.266 376.115 211.427 376.115C212.588 376.115 213.521 375.179 213.521 374.013C213.521 372.857 212.588 371.911 211.427 371.911C210.266 371.911 209.334 372.857 209.334 374.013Z" fill="#CCCCCC"/>
<path d="M212.617 64.2043C211.461 64.2043 210.523 63.2632 210.523 62.1023C210.523 60.9414 211.461 60.0004 212.617 60.0004C213.773 60.0004 214.71 60.9414 214.71 62.1023C214.71 63.2632 213.773 64.2043 212.617 64.2043Z" fill="#CCCCCC" stroke="#DDDDDD" stroke-miterlimit="10"/>
<path d="M268.143 321.55C266.307 321.55 266.307 318.684 268.143 318.684C269.98 318.684 269.98 321.55 268.143 321.55Z" fill="#DDDDDD"/>
<path d="M224.598 142.712C222.761 142.712 222.761 139.846 224.598 139.846C226.434 139.846 226.434 142.712 224.598 142.712Z" fill="#DDDDDD"/>
<path d="M285.558 84.6888C283.721 84.6888 283.721 81.8225 285.558 81.8225C287.394 81.8225 287.394 84.6888 285.558 84.6888Z" fill="#DDDDDD"/>
<path d="M430.431 323.939C428.594 323.939 428.594 321.073 430.431 321.073C432.267 321.073 432.277 323.939 430.431 323.939Z" fill="#DDDDDD"/>
<path d="M557.889 405.81C556.053 405.81 556.053 402.944 557.889 402.944C559.726 402.944 559.736 405.81 557.889 405.81Z" fill="#DDDDDD"/>
<path d="M599.855 358.115C598.019 358.115 598.019 355.249 599.855 355.249C601.692 355.249 601.692 358.115 599.855 358.115Z" fill="#DDDDDD"/>
<path d="M606.184 420.113C604.347 420.113 604.347 417.247 606.184 417.247C608.02 417.247 608.03 420.113 606.184 420.113Z" fill="#DDDDDD"/>
<path d="M406.679 45.7357C404.842 45.7357 404.842 42.8694 406.679 42.8694C408.525 42.8694 408.525 45.7357 406.679 45.7357Z" fill="#DDDDDD"/>
<path d="M508.805 95.447C506.969 95.447 506.969 92.5807 508.805 92.5807C510.642 92.5807 510.652 95.447 508.805 95.447Z" fill="#DDDDDD"/>
<path d="M156.51 361.296C154.673 361.296 154.673 358.43 156.51 358.43C158.346 358.43 158.356 361.296 156.51 361.296Z" fill="#DDDDDD"/>
<path d="M82.0941 255.578C80.2575 255.578 80.2575 252.711 82.0941 252.711C83.9307 252.711 83.9402 255.578 82.0941 255.578Z" fill="#DDDDDD"/>
<path d="M244.391 405.007C242.554 405.007 242.554 402.141 244.391 402.141C246.228 402.141 246.228 405.007 244.391 405.007Z" fill="#DDDDDD"/>
<path d="M390.853 236.498C389.017 236.498 389.017 233.631 390.853 233.631C392.69 233.631 392.69 236.498 390.853 236.498Z" fill="#DDDDDD"/>
<path d="M117.722 56.8665C115.886 56.8665 115.886 54.0002 117.722 54.0002C119.559 54.0002 119.559 56.8665 117.722 56.8665Z" fill="#DDDDDD"/>
<path d="M109.015 432.83C107.179 432.83 107.179 429.963 109.015 429.963C110.852 429.963 110.852 432.83 109.015 432.83Z" fill="#DDDDDD"/>
<path d="M626.767 212.497C623.094 212.497 623.084 206.765 626.767 206.765C630.44 206.765 630.45 212.497 626.767 212.497Z" fill="#DDDDDD"/>
<path d="M508.805 425.521C505.132 425.521 505.123 419.788 508.805 419.788C512.479 419.788 512.488 425.521 508.805 425.521Z" fill="#DDDDDD"/>
<path d="M430.764 5.04382C427.091 5.04382 427.081 -0.688782 430.764 -0.688782C434.437 -0.688782 434.447 5.04382 430.764 5.04382Z" fill="#DDDDDD"/>
<path d="M131.968 249.062C128.295 249.062 128.285 243.329 131.968 243.329C135.641 243.329 135.651 249.062 131.968 249.062Z" fill="#DDDDDD"/>
<path d="M223.018 20.1492C219.345 20.1492 219.335 14.4166 223.018 14.4166C226.691 14.4166 226.691 20.1492 223.018 20.1492Z" fill="#DDDDDD"/>
<path d="M401.93 360.341C398.257 360.341 398.247 354.608 401.93 354.608C405.603 354.608 405.613 360.341 401.93 360.341Z" fill="#DDDDDD"/>
<path d="M398.771 281.088C397.848 281.088 397.848 279.655 398.771 279.655C399.684 279.655 399.684 281.088 398.771 281.088Z" fill="#DDDDDD"/>
<path d="M185.011 417.81C184.088 417.81 184.088 416.377 185.011 416.377C185.934 416.377 185.934 417.81 185.011 417.81Z" fill="#DDDDDD"/>
<path d="M204.014 313.678C203.091 313.678 203.091 312.244 204.014 312.244C204.937 312.244 204.937 313.678 204.014 313.678Z" fill="#DDDDDD"/>
<path d="M552.351 354.217C551.428 354.217 551.428 352.783 552.351 352.783C553.274 352.783 553.274 354.217 552.351 354.217Z" fill="#DDDDDD"/>
<path d="M513.563 390.781C512.64 390.781 512.64 389.348 513.563 389.348C514.477 389.348 514.477 390.781 513.563 390.781Z" fill="#DDDDDD"/>
<path d="M584.021 375.676C583.098 375.676 583.098 374.242 584.021 374.242C584.934 374.242 584.934 375.676 584.021 375.676Z" fill="#DDDDDD"/>
<path d="M515.933 276.32C515.01 276.32 515.01 274.887 515.933 274.887C516.856 274.887 516.856 276.32 515.933 276.32Z" fill="#DDDDDD"/>
<path d="M508.015 327.197C507.092 327.197 507.092 325.764 508.015 325.764C508.939 325.764 508.939 327.197 508.015 327.197Z" fill="#DDDDDD"/>
<path d="M466.849 312.885C465.926 312.885 465.926 311.451 466.849 311.451C467.772 311.451 467.772 312.885 466.849 312.885Z" fill="#DDDDDD"/>
<path d="M473.977 49.7868C473.053 49.7868 473.053 48.3536 473.977 48.3536C474.89 48.3536 474.9 49.7868 473.977 49.7868Z" fill="#DDDDDD"/>
<path d="M562.647 82.7397C561.268 82.7397 561.268 80.59 562.647 80.59C564.018 80.59 564.027 82.7397 562.647 82.7397Z" fill="#DDDDDD"/>
<path d="M626.767 118.148C625.844 118.148 625.844 116.715 626.767 116.715C627.69 116.715 627.69 118.148 626.767 118.148Z" fill="#DDDDDD"/>
<path d="M531.768 149.505C530.388 149.505 530.388 147.356 531.768 147.356C533.148 147.356 533.148 149.505 531.768 149.505Z" fill="#DDDDDD"/>
<path d="M479.762 17.9995C478.839 17.9995 478.839 16.5663 479.762 16.5663C480.685 16.5663 480.685 17.9995 479.762 17.9995Z" fill="#DDDDDD"/>
<path d="M574.248 118.148C573.325 118.148 573.325 116.715 574.248 116.715C575.161 116.715 575.161 118.148 574.248 118.148Z" fill="#DDDDDD"/>
<path d="M600.645 157.092C599.722 157.092 599.722 155.658 600.645 155.658C601.559 155.658 601.559 157.092 600.645 157.092Z" fill="#DDDDDD"/>
<path d="M513.563 191.277C512.64 191.277 512.64 189.844 513.563 189.844C514.477 189.844 514.477 191.277 513.563 191.277Z" fill="#DDDDDD"/>
<path d="M613.311 302.556C612.388 302.556 612.388 301.123 613.311 301.123C614.225 301.123 614.234 302.556 613.311 302.556Z" fill="#DDDDDD"/>
<path d="M447.855 67.2712C446.932 67.2712 446.932 65.8381 447.855 65.8381C448.768 65.8381 448.768 67.2712 447.855 67.2712Z" fill="#DDDDDD"/>
<path d="M185.81 2.89409C184.887 2.89409 184.887 1.46094 185.81 1.46094C186.724 1.46094 186.724 2.89409 185.81 2.89409Z" fill="#DDDDDD"/>
<path d="M83.6832 41.0446C82.7602 41.0446 82.7602 39.6115 83.6832 39.6115C84.5968 39.6115 84.5968 41.0446 83.6832 41.0446Z" fill="#DDDDDD"/>
<path d="M247.56 87.9468C246.637 87.9468 246.637 86.5137 247.56 86.5137C248.474 86.5137 248.474 87.9468 247.56 87.9468Z" fill="#DDDDDD"/>
<path d="M167.596 111.785C166.673 111.785 166.673 110.352 167.596 110.352C168.519 110.352 168.519 111.785 167.596 111.785Z" fill="#DDDDDD"/>
<path d="M131.178 172.99C130.255 172.99 130.255 171.557 131.178 171.557C132.101 171.557 132.101 172.99 131.178 172.99Z" fill="#DDDDDD"/>
<path d="M173.934 200.812C173.011 200.812 173.011 199.379 173.934 199.379C174.848 199.379 174.848 200.812 173.934 200.812Z" fill="#DDDDDD"/>
<path d="M325.145 391.574C324.222 391.574 324.222 390.141 325.145 390.141C326.058 390.141 326.058 391.574 325.145 391.574Z" fill="#DDDDDD"/>
<path d="M357.595 375.676C356.672 375.676 356.672 374.242 357.595 374.242C358.518 374.242 358.518 375.676 357.595 375.676Z" fill="#DDDDDD"/>
<path d="M356.805 316.066C355.882 316.066 355.882 314.633 356.805 314.633C357.728 314.633 357.728 316.066 356.805 316.066Z" fill="#DDDDDD"/>
<path d="M317.227 234.988C316.304 234.988 316.304 233.555 317.227 233.555C318.141 233.555 318.141 234.988 317.227 234.988Z" fill="#DDDDDD"/>
<path d="M323.556 142.789C322.632 142.789 322.632 141.356 323.556 141.356C324.479 141.356 324.479 142.789 323.556 142.789Z" fill="#DDDDDD"/>
<path d="M361.553 184.914C360.63 184.914 360.63 183.481 361.553 183.481C362.476 183.481 362.476 184.914 361.553 184.914Z" fill="#DDDDDD"/>
<path d="M590.349 313.678C589.426 313.678 589.426 312.244 590.349 312.244C591.272 312.244 591.272 313.678 590.349 313.678Z" fill="#DDDDDD"/>
<path d="M632.315 383.625C631.392 383.625 631.392 382.192 632.315 382.192C633.228 382.192 633.228 383.625 632.315 383.625Z" fill="#DDDDDD"/>
<path d="M540.76 441.228C541.027 440.96 541.284 440.702 541.55 440.435C541.617 440.368 541.693 440.32 541.779 440.282C541.864 440.234 541.96 440.215 542.055 440.225C542.15 440.225 542.245 440.244 542.331 440.282C542.416 440.311 542.492 440.359 542.559 440.435C542.683 440.569 542.778 440.75 542.768 440.941C542.759 441.132 542.692 441.314 542.559 441.448C542.293 441.715 542.036 441.973 541.769 442.241C541.703 442.308 541.626 442.355 541.541 442.394C541.455 442.441 541.36 442.46 541.265 442.451C541.17 442.451 541.075 442.432 540.989 442.394C540.903 442.365 540.827 442.317 540.76 442.241C540.637 442.107 540.542 441.925 540.551 441.734C540.561 441.543 540.627 441.362 540.76 441.228Z" fill="#DDDDDD"/>
</g>
<defs>
<clipPath id="clip0_5_40598">
<rect width="858" height="620" fill="white" transform="matrix(-1 0 0 1 633 -113)"/>
</clipPath>
</defs>
</svg>
