<svg width="412" height="305" viewBox="0 0 412 305" fill="none" xmlns="http://www.w3.org/2000/svg">
<g clip-path="url(#clip0_45_36358)">
<path d="M172.096 111.172L37.3355 23.2368L206.101 -18.5078L172.096 111.172Z" stroke="#DDDDDD" stroke-width="0.7021" stroke-miterlimit="10" stroke-linecap="round" stroke-linejoin="round"/>
<path d="M279.789 99.1581L305.437 232.351L195.494 194.583L279.789 99.1581Z" stroke="#DDDDDD" stroke-width="0.7021" stroke-miterlimit="10" stroke-linecap="round" stroke-linejoin="round"/>
<path d="M-45.1102 97.3329L37.336 23.2369L55.2566 183.214L-45.1102 97.3329Z" stroke="#DDDDDD" stroke-width="0.3511" stroke-miterlimit="10" stroke-linecap="round" stroke-linejoin="round"/>
<path d="M55.2566 183.214L-101.72 279.565L-76.8831 56.6312L55.2566 183.214Z" stroke="#DDDDDD" stroke-width="0.7021" stroke-miterlimit="10" stroke-linecap="round" stroke-linejoin="round"/>
<path d="M195.494 194.583L55.2566 183.214L172.097 111.172L195.494 194.583Z" stroke="#DDDDDD" stroke-width="0.7021" stroke-miterlimit="10" stroke-linecap="round" stroke-linejoin="round"/>
<path d="M-54.5769 250.623L114.546 300.118L55.2562 183.215L-54.5769 250.623Z" stroke="#DDDDDD" stroke-width="0.7021" stroke-miterlimit="10" stroke-linecap="round" stroke-linejoin="round"/>
<path d="M195.493 194.583L111.587 112.41L219.5 62.8043L195.493 194.583Z" stroke="#DDDDDD" stroke-width="0.7021" stroke-miterlimit="10" stroke-linecap="round" stroke-linejoin="round"/>
<path d="M111.588 112.41L55.2566 183.214L195.494 194.583L111.588 112.41Z" stroke="#DDDDDD" stroke-width="0.7021" stroke-miterlimit="10" stroke-linecap="round" stroke-linejoin="round"/>
<path d="M111.587 112.41L-76.8834 56.6312H88.5086L111.587 112.41Z" stroke="#DDDDDD" stroke-width="0.3511" stroke-miterlimit="10" stroke-linecap="round" stroke-linejoin="round"/>
<path d="M55.2566 183.214L-172.773 82.8488L-54.5765 250.623L55.2566 183.214Z" stroke="#DDDDDD" stroke-width="0.7021" stroke-miterlimit="10" stroke-linecap="round" stroke-linejoin="round"/>
<path d="M279.958 99.3536L172.097 111.172L219.5 62.8043L279.958 99.3536Z" stroke="#DDDDDD" stroke-width="0.7021" stroke-miterlimit="10" stroke-linecap="round" stroke-linejoin="round"/>
<path d="M110.972 112.436L-45.1095 97.3329L-1.73555 189.127L110.972 112.436Z" stroke="#DDDDDD" stroke-width="0.3511" stroke-miterlimit="10" stroke-linecap="round" stroke-linejoin="round"/>
<path d="M195.494 194.583L231.543 304.883L114.547 300.118L195.494 194.583Z" stroke="#DDDDDD" stroke-width="0.3511" stroke-miterlimit="10" stroke-linecap="round" stroke-linejoin="round"/>
<path d="M1.26748 249.625L114.546 300.118L55.2562 183.215L1.26748 249.625Z" stroke="#DDDDDD" stroke-width="0.3511" stroke-miterlimit="10" stroke-linecap="round" stroke-linejoin="round"/>
<path d="M285.654 225.82L221.517 271.097L279.957 99.3536" stroke="#DDDDDD" stroke-width="0.5" stroke-miterlimit="10" stroke-linecap="round" stroke-linejoin="round"/>
<path d="M134.186 134.547L114.546 300.118" stroke="#DDDDDD" stroke-width="0.3511" stroke-miterlimit="10" stroke-linecap="round" stroke-linejoin="round"/>
<path d="M1.26793 249.625L195.494 194.583" stroke="#DDDDDD" stroke-width="0.3511" stroke-miterlimit="10" stroke-linecap="round" stroke-linejoin="round"/>
<path d="M219.5 62.8043L206.102 -18.5077L235.461 -45.3836L221.187 -97.6622" stroke="#DDDDDD" stroke-width="0.3511" stroke-miterlimit="10" stroke-linecap="round" stroke-linejoin="round"/>
<path d="M125.374 1.46497L110.97 112.436" stroke="#DDDDDD" stroke-width="0.3511" stroke-miterlimit="10" stroke-linecap="round" stroke-linejoin="round"/>
<path d="M305.437 232.351L172.097 111.172L125.375 1.46501L21.5372 -55.1484L37.336 23.2369" stroke="#DDDDDD" stroke-width="0.3511" stroke-miterlimit="10" stroke-linecap="round" stroke-linejoin="round"/>
<path d="M221.006 -16.0634L236.24 56.2923L287.115 85.2932L221.006 -16.0634Z" stroke="#DDDDDD" stroke-width="0.7021" stroke-miterlimit="10" stroke-linecap="round" stroke-linejoin="round"/>
<path d="M323.007 171.533L305.437 103.226L374.79 128.694L327.867 210.038" stroke="#DDDDDD" stroke-width="0.7021" stroke-miterlimit="10" stroke-linecap="round" stroke-linejoin="round"/>
<path d="M380.221 116.738L307.52 86.988L266.32 14.8083L380.221 116.738Z" stroke="#DDDDDD" stroke-width="0.3511" stroke-miterlimit="10" stroke-linecap="round" stroke-linejoin="round"/>
<path d="M276.564 99.4058C276.564 100.99 277.842 102.274 279.418 102.274C280.995 102.274 282.273 100.99 282.273 99.4058C282.273 97.8218 280.995 96.5377 279.418 96.5377C277.842 96.5442 276.564 97.8218 276.564 99.4058Z" fill="#CCCCCC"/>
<path d="M192.639 194.583C192.639 196.167 193.917 197.451 195.494 197.451C197.07 197.451 198.348 196.167 198.348 194.583C198.348 192.999 197.07 191.715 195.494 191.715C193.917 191.721 192.639 193.005 192.639 194.583Z" fill="#CCCCCC"/>
<path d="M108.123 112.436C108.123 114.02 109.401 115.304 110.978 115.304C112.555 115.304 113.833 114.02 113.833 112.436C113.833 110.852 112.555 109.568 110.978 109.568C109.395 109.568 108.123 110.852 108.123 112.436Z" fill="#CCCCCC"/>
<path d="M233.385 56.2922C233.385 57.8762 234.663 59.1604 236.24 59.1604C237.816 59.1604 239.094 57.8762 239.094 56.2922C239.094 54.7082 237.816 53.4241 236.24 53.4241C234.663 53.4306 233.385 54.7147 233.385 56.2922Z" fill="#CCCCCC"/>
<path d="M371.942 128.693C371.942 130.277 373.22 131.562 374.796 131.562C376.373 131.562 377.651 130.277 377.651 128.693C377.651 127.109 376.373 125.825 374.796 125.825C373.213 125.825 371.942 127.109 371.942 128.693Z" fill="#CCCCCC"/>
<path d="M52.4019 183.214C52.4019 184.798 53.68 186.083 55.2567 186.083C56.8333 186.083 58.1115 184.798 58.1115 183.214C58.1115 181.63 56.8333 180.346 55.2567 180.346C53.68 180.346 52.4019 181.63 52.4019 183.214Z" fill="#CCCCCC"/>
<path d="M169.242 111.172C169.242 112.756 170.52 114.04 172.097 114.04C173.673 114.04 174.952 112.756 174.952 111.172C174.952 109.588 173.673 108.304 172.097 108.304C170.52 108.304 169.242 109.588 169.242 111.172Z" fill="#CCCCCC"/>
<path d="M34.4877 23.2369C34.4877 24.8209 35.7659 26.105 37.3426 26.105C38.9192 26.105 40.1974 24.8209 40.1974 23.2369C40.1974 21.6529 38.9192 20.3687 37.3426 20.3687C35.7594 20.3687 34.4877 21.6529 34.4877 23.2369Z" fill="#CCCCCC"/>
<path d="M302.582 232.351C302.582 233.935 303.86 235.219 305.437 235.219C307.014 235.219 308.292 233.935 308.292 232.351C308.292 230.767 307.014 229.483 305.437 229.483C303.86 229.483 302.582 230.767 302.582 232.351Z" fill="#CCCCCC"/>
<path d="M307.52 88.4221C306.731 88.4221 306.092 87.7801 306.092 86.988C306.092 86.196 306.731 85.554 307.52 85.554C308.308 85.554 308.947 86.196 308.947 86.988C308.947 87.7801 308.308 88.4221 307.52 88.4221Z" fill="#CCCCCC"/>
<path d="M134.186 135.981C133.398 135.981 132.759 135.339 132.759 134.547C132.759 133.755 133.398 133.113 134.186 133.113C134.974 133.113 135.614 133.755 135.614 134.547C135.614 135.339 134.974 135.981 134.186 135.981Z" fill="#CCCCCC" stroke="#DDDDDD" stroke-miterlimit="10"/>
<path d="M226.404 161.443C225.616 161.443 224.977 160.8 224.977 160.008C224.977 159.216 225.616 158.574 226.404 158.574C227.193 158.574 227.832 159.216 227.832 160.008C227.832 160.8 227.193 161.443 226.404 161.443Z" fill="#CCCCCC" stroke="#DDDDDD" stroke-miterlimit="10"/>
<path d="M123.137 214.269C123.137 215.057 123.773 215.703 124.564 215.703C125.356 215.703 125.992 215.064 125.992 214.269C125.992 213.48 125.356 212.835 124.564 212.835C123.773 212.835 123.137 213.48 123.137 214.269Z" fill="#CCCCCC"/>
<path d="M125.374 2.89909C124.586 2.89909 123.947 2.25704 123.947 1.46502C123.947 0.673 124.586 0.0309448 125.374 0.0309448C126.163 0.0309448 126.802 0.673 126.802 1.46502C126.802 2.25704 126.163 2.89909 125.374 2.89909Z" fill="#CCCCCC" stroke="#DDDDDD" stroke-miterlimit="10"/>
<path d="M163.234 178.475C161.982 178.475 161.982 176.52 163.234 176.52C164.486 176.52 164.486 178.475 163.234 178.475Z" fill="#DDDDDD"/>
<path d="M133.544 56.4618C132.292 56.4618 132.292 54.5062 133.544 54.5062C134.796 54.5062 134.796 56.4618 133.544 56.4618Z" fill="#DDDDDD"/>
<path d="M175.108 16.8748C173.856 16.8748 173.856 14.9193 175.108 14.9193C176.36 14.9193 176.36 16.8748 175.108 16.8748Z" fill="#DDDDDD"/>
<path d="M273.885 180.105C272.633 180.105 272.633 178.15 273.885 178.15C275.137 178.15 275.144 180.105 273.885 180.105Z" fill="#DDDDDD"/>
<path d="M360.788 235.962C359.536 235.962 359.536 234.007 360.788 234.007C362.04 234.007 362.047 235.962 360.788 235.962Z" fill="#DDDDDD"/>
<path d="M389.402 203.422C388.15 203.422 388.15 201.466 389.402 201.466C390.654 201.466 390.654 203.422 389.402 203.422Z" fill="#DDDDDD"/>
<path d="M393.716 245.72C392.463 245.72 392.463 243.765 393.716 243.765C394.968 243.765 394.974 245.72 393.716 245.72Z" fill="#DDDDDD"/>
<path d="M327.321 24.2146C326.069 24.2146 326.069 22.259 327.321 22.259C328.573 22.259 328.58 24.2146 327.321 24.2146Z" fill="#DDDDDD"/>
<path d="M87.1207 205.593C85.8685 205.593 85.8685 203.637 87.1207 203.637C88.373 203.637 88.3795 205.593 87.1207 205.593Z" fill="#DDDDDD"/>
<path d="M36.3826 133.465C35.1304 133.465 35.1304 131.51 36.3826 131.51C37.6349 131.51 37.6414 133.465 36.3826 133.465Z" fill="#DDDDDD"/>
<path d="M147.04 235.415C145.788 235.415 145.788 233.459 147.04 233.459C148.292 233.459 148.292 235.415 147.04 235.415Z" fill="#DDDDDD"/>
<path d="M246.9 120.448C245.648 120.448 245.648 118.492 246.9 118.492C248.152 118.492 248.152 120.448 246.9 120.448Z" fill="#DDDDDD"/>
<path d="M54.7379 254.397C53.4857 254.397 53.4857 252.441 54.7379 252.441C55.9902 252.441 55.9902 254.397 54.7379 254.397Z" fill="#DDDDDD"/>
<path d="M407.75 104.073C405.246 104.073 405.239 100.162 407.75 100.162C410.255 100.162 410.261 104.073 407.75 104.073Z" fill="#DDDDDD"/>
<path d="M327.322 249.41C324.817 249.41 324.811 245.499 327.322 245.499C329.826 245.499 329.833 249.41 327.322 249.41Z" fill="#DDDDDD"/>
<path d="M70.3866 129.019C67.8821 129.019 67.8756 125.108 70.3866 125.108C72.891 125.108 72.8975 129.019 70.3866 129.019Z" fill="#DDDDDD"/>
<path d="M254.453 204.941C251.948 204.941 251.942 201.03 254.453 201.03C256.957 201.03 256.964 204.941 254.453 204.941Z" fill="#DDDDDD"/>
<path d="M252.299 150.87C251.669 150.87 251.669 149.892 252.299 149.892C252.921 149.892 252.921 150.87 252.299 150.87Z" fill="#DDDDDD"/>
<path d="M106.553 244.15C105.923 244.15 105.923 243.172 106.553 243.172C107.182 243.172 107.182 244.15 106.553 244.15Z" fill="#DDDDDD"/>
<path d="M119.509 173.104C118.88 173.104 118.88 172.126 119.509 172.126C120.139 172.126 120.139 173.104 119.509 173.104Z" fill="#DDDDDD"/>
<path d="M357.012 200.762C356.382 200.762 356.382 199.785 357.012 199.785C357.641 199.785 357.641 200.762 357.012 200.762Z" fill="#DDDDDD"/>
<path d="M330.567 225.709C329.937 225.709 329.937 224.731 330.567 224.731C331.19 224.731 331.19 225.709 330.567 225.709Z" fill="#DDDDDD"/>
<path d="M378.605 215.403C377.976 215.403 377.976 214.425 378.605 214.425C379.228 214.425 379.228 215.403 378.605 215.403Z" fill="#DDDDDD"/>
<path d="M332.181 147.617C331.552 147.617 331.552 146.639 332.181 146.639C332.811 146.639 332.811 147.617 332.181 147.617Z" fill="#DDDDDD"/>
<path d="M326.784 182.328C326.154 182.328 326.154 181.35 326.784 181.35C327.413 181.35 327.413 182.328 326.784 182.328Z" fill="#DDDDDD"/>
<path d="M298.714 172.563C298.085 172.563 298.085 171.585 298.714 171.585C299.344 171.585 299.344 172.563 298.714 172.563Z" fill="#DDDDDD"/>
<path d="M364.032 15.545C363.091 15.545 363.091 14.0783 364.032 14.0783C364.966 14.0783 364.973 15.545 364.032 15.545Z" fill="#DDDDDD"/>
<path d="M407.75 39.7026C407.12 39.7026 407.12 38.7249 407.75 38.7249C408.379 38.7249 408.379 39.7026 407.75 39.7026Z" fill="#DDDDDD"/>
<path d="M342.977 61.0965C342.037 61.0965 342.037 59.6298 342.977 59.6298C343.918 59.6298 343.918 61.0965 342.977 61.0965Z" fill="#DDDDDD"/>
<path d="M371.942 39.7026C371.312 39.7026 371.312 38.7249 371.942 38.7249C372.565 38.7249 372.565 39.7026 371.942 39.7026Z" fill="#DDDDDD"/>
<path d="M389.94 66.2721C389.31 66.2721 389.31 65.2943 389.94 65.2943C390.563 65.2943 390.563 66.2721 389.94 66.2721Z" fill="#DDDDDD"/>
<path d="M330.567 89.5954C329.937 89.5954 329.937 88.6176 330.567 88.6176C331.19 88.6176 331.19 89.5954 330.567 89.5954Z" fill="#DDDDDD"/>
<path d="M398.575 165.517C397.946 165.517 397.946 164.539 398.575 164.539C399.198 164.539 399.204 165.517 398.575 165.517Z" fill="#DDDDDD"/>
<path d="M285.764 4.99151C285.135 4.99151 285.135 4.01373 285.764 4.01373C286.387 4.01373 286.387 4.99151 285.764 4.99151Z" fill="#DDDDDD"/>
<path d="M149.2 19.0976C148.571 19.0976 148.571 18.1198 149.2 18.1198C149.823 18.1198 149.823 19.0976 149.2 19.0976Z" fill="#DDDDDD"/>
<path d="M94.6789 35.3613C94.0495 35.3613 94.0495 34.3835 94.6789 34.3835C95.3082 34.3835 95.3082 35.3613 94.6789 35.3613Z" fill="#DDDDDD"/>
<path d="M69.8484 77.119C69.219 77.119 69.219 76.1412 69.8484 76.1412C70.4777 76.1412 70.4777 77.119 69.8484 77.119Z" fill="#DDDDDD"/>
<path d="M98.9996 96.1009C98.3703 96.1009 98.3703 95.1232 98.9996 95.1232C99.6225 95.1232 99.6225 96.1009 98.9996 96.1009Z" fill="#DDDDDD"/>
<path d="M202.098 226.25C201.469 226.25 201.469 225.272 202.098 225.272C202.721 225.272 202.721 226.25 202.098 226.25Z" fill="#DDDDDD"/>
<path d="M224.223 215.403C223.594 215.403 223.594 214.425 224.223 214.425C224.852 214.425 224.852 215.403 224.223 215.403Z" fill="#DDDDDD"/>
<path d="M223.685 174.734C223.056 174.734 223.056 173.756 223.685 173.756C224.314 173.756 224.314 174.734 223.685 174.734Z" fill="#DDDDDD"/>
<path d="M196.701 119.418C196.071 119.418 196.071 118.44 196.701 118.44C197.324 118.44 197.324 119.418 196.701 119.418Z" fill="#DDDDDD"/>
<path d="M201.015 56.5139C200.385 56.5139 200.385 55.5361 201.015 55.5361C201.644 55.5361 201.644 56.5139 201.015 56.5139Z" fill="#DDDDDD"/>
<path d="M226.922 85.2541C226.293 85.2541 226.293 84.2763 226.922 84.2763C227.552 84.2763 227.552 85.2541 226.922 85.2541Z" fill="#DDDDDD"/>
<path d="M382.919 173.104C382.29 173.104 382.29 172.126 382.919 172.126C383.549 172.126 383.549 173.104 382.919 173.104Z" fill="#DDDDDD"/>
<path d="M411.533 220.826C410.903 220.826 410.903 219.849 411.533 219.849C412.156 219.849 412.156 220.826 411.533 220.826Z" fill="#DDDDDD"/>
<path d="M349.109 260.126C349.291 259.944 349.466 259.768 349.648 259.585C349.693 259.54 349.745 259.507 349.804 259.481C349.862 259.449 349.927 259.436 349.992 259.442C350.057 259.442 350.122 259.455 350.18 259.481C350.238 259.501 350.29 259.533 350.336 259.585C350.42 259.677 350.485 259.801 350.478 259.931C350.472 260.061 350.427 260.185 350.336 260.276C350.154 260.459 349.979 260.635 349.797 260.817C349.752 260.863 349.7 260.896 349.641 260.922C349.583 260.954 349.518 260.967 349.453 260.961C349.388 260.961 349.324 260.948 349.265 260.922C349.207 260.902 349.155 260.87 349.109 260.817C349.025 260.726 348.96 260.602 348.967 260.472C348.973 260.342 349.019 260.218 349.109 260.126Z" fill="#DDDDDD"/>
</g>
<defs>
<clipPath id="clip0_45_36358">
<rect width="585" height="423" fill="white" transform="matrix(-1 0 0 1 412 -118)"/>
</clipPath>
</defs>
</svg>
