<svg width="65" height="28" viewBox="0 0 65 28" fill="none" xmlns="http://www.w3.org/2000/svg">
<path d="M0.924303 26.5433L0.601433 23.5499H1.12161L1.25614 24.8921L1.31892 25.6515C1.31892 25.7045 1.32789 25.8193 1.33686 25.9959C1.39964 25.8016 1.43552 25.6603 1.48933 25.5544C1.5252 25.4484 1.58798 25.3071 1.67767 25.1129L2.4131 23.5499H2.98709L3.08574 25.051C3.10368 25.2806 3.11265 25.5808 3.11265 25.9605C3.21131 25.7045 3.37274 25.3601 3.59696 24.9098L4.26064 23.5499H4.78978L3.27409 26.5433H2.71803L2.61041 24.7861C2.60144 24.6802 2.59247 24.4683 2.59247 24.1504C2.51175 24.3535 2.42207 24.5654 2.30547 24.8038L1.48036 26.5522H0.924303V26.5433Z" fill="#919191"/>
<path d="M4.67181 26.5433L5.55971 22.4108H6.09783L5.75702 24.0002C5.9633 23.8148 6.14267 23.6824 6.3041 23.6029C6.47451 23.5146 6.65388 23.4793 6.82429 23.4793C7.08438 23.4793 7.29065 23.5411 7.43415 23.6735C7.57765 23.806 7.6494 23.9738 7.6494 24.1945C7.6494 24.3005 7.62249 24.4947 7.55971 24.7773L7.17406 26.5433H6.63594L7.03056 24.7243C7.09334 24.4594 7.12025 24.3005 7.12025 24.2298C7.12025 24.1327 7.07541 24.0532 7.01263 23.9914C6.94088 23.9296 6.83325 23.9031 6.70769 23.9031C6.51935 23.9031 6.33101 23.9561 6.16061 24.0444C5.9902 24.1415 5.8467 24.274 5.75702 24.4417C5.65836 24.6095 5.56868 24.8833 5.48796 25.2541L5.20096 26.5433H4.67181Z" fill="#919191"/>
<path d="M8.76287 24.7773H10.5028C10.5118 24.7243 10.5118 24.689 10.5118 24.6625C10.5118 24.4064 10.44 24.2121 10.3055 24.0709C10.1709 23.9384 10.0005 23.8678 9.79426 23.8678C9.57004 23.8678 9.37273 23.9472 9.17542 24.0974C8.98708 24.2475 8.85255 24.477 8.76287 24.7773ZM10.2965 25.519L10.8167 25.572C10.7449 25.8192 10.5745 26.0488 10.2965 26.2784C10.0364 26.4991 9.72251 26.6139 9.34583 26.6139C9.11264 26.6139 8.8974 26.561 8.70906 26.4638C8.52071 26.3667 8.37722 26.2166 8.26959 26.0135C8.17094 25.8192 8.11713 25.5896 8.11713 25.3424C8.11713 25.0157 8.19784 24.6978 8.35031 24.3887C8.51175 24.0797 8.71802 23.8501 8.96915 23.7C9.2113 23.5499 9.48036 23.4792 9.77632 23.4792C10.153 23.4792 10.44 23.594 10.6642 23.8148C10.8884 24.0355 10.9961 24.3358 10.9961 24.7243C10.9961 24.8744 10.9871 25.0245 10.9602 25.1746H8.67318C8.66421 25.2364 8.66421 25.2894 8.66421 25.3336C8.66421 25.6161 8.72699 25.8281 8.87049 25.9782C9.00502 26.1283 9.16646 26.1989 9.3548 26.1989C9.53417 26.1989 9.72251 26.1371 9.89292 26.0223C10.0633 25.9075 10.1978 25.7397 10.2965 25.519Z" fill="#919191"/>
<path d="M11.3554 26.5433L12.0101 23.5499H12.4765L12.342 24.1592C12.5034 23.9296 12.6559 23.753 12.8173 23.647C12.9698 23.5322 13.1222 23.4792 13.2837 23.4792C13.3913 23.4792 13.5168 23.5146 13.6783 23.5852L13.4541 24.062C13.3644 24.0002 13.2657 23.9649 13.1491 23.9649C12.9698 23.9649 12.7725 24.062 12.5841 24.2651C12.3958 24.4682 12.2254 24.8214 12.1177 25.3424L11.8577 26.5433H11.3554Z" fill="#919191"/>
<path d="M14.1004 24.7773H15.8403C15.8493 24.7243 15.8493 24.689 15.8493 24.6625C15.8493 24.4064 15.7775 24.2121 15.643 24.0709C15.5085 23.9384 15.3381 23.8678 15.1228 23.8678C14.8986 23.8678 14.7013 23.9472 14.504 24.0974C14.3336 24.2475 14.1901 24.477 14.1004 24.7773ZM15.643 25.519L16.1632 25.572C16.0914 25.8192 15.921 26.0488 15.643 26.2784C15.3829 26.4991 15.069 26.6139 14.6923 26.6139C14.4591 26.6139 14.2439 26.561 14.0556 26.4638C13.8672 26.3667 13.7237 26.2166 13.6251 26.0135C13.5264 25.8192 13.4726 25.5896 13.4726 25.3424C13.4726 25.0157 13.5533 24.6978 13.7058 24.3887C13.8672 24.0797 14.0735 23.8501 14.3246 23.7C14.5668 23.5499 14.8358 23.4792 15.1318 23.4792C15.5085 23.4792 15.7955 23.594 16.0197 23.8148C16.2439 24.0355 16.3515 24.3358 16.3515 24.7243C16.3515 24.8744 16.3426 25.0245 16.3157 25.1746H14.0107C14.0017 25.2364 14.0017 25.2894 14.0017 25.3336C14.0017 25.6161 14.0645 25.8281 14.208 25.9782C14.3426 26.1283 14.504 26.1989 14.6923 26.1989C14.8717 26.1989 15.06 26.1371 15.2304 26.0223C15.4098 25.9075 15.5354 25.7397 15.643 25.519Z" fill="#919191"/>
<path d="M19.607 26.1283L19.5173 26.5433C19.3917 26.5786 19.2662 26.5875 19.1496 26.5875C18.9343 26.5875 18.7639 26.5345 18.6473 26.4373C18.5577 26.3667 18.5038 26.2607 18.5038 26.1283C18.5038 26.0665 18.5218 25.9075 18.5756 25.6691L18.9612 23.9296H18.5397L18.6294 23.5322H19.042L19.2034 22.7993L19.8133 22.4461L19.5801 23.5322H20.0913L20.0106 23.9296H19.4814L19.1227 25.5808C19.0689 25.7927 19.0509 25.9164 19.0509 25.9605C19.0509 26.0223 19.0689 26.0665 19.1047 26.1018C19.1496 26.1371 19.2034 26.1459 19.2841 26.1459C19.4186 26.1636 19.5173 26.1459 19.607 26.1283Z" fill="#919191"/>
<path d="M20.0273 26.5433L20.9241 22.4108H21.4623L21.1215 24.0002C21.3098 23.8148 21.4981 23.6824 21.6685 23.6029C21.8389 23.5234 22.0094 23.4793 22.1977 23.4793C22.4578 23.4793 22.6551 23.5411 22.8076 23.6735C22.9511 23.806 23.0228 23.9738 23.0228 24.1945C23.0228 24.3005 22.9959 24.4947 22.9242 24.7773L22.5385 26.5433H22.0094L22.404 24.7243C22.4668 24.4594 22.4847 24.3005 22.4847 24.2298C22.4847 24.1327 22.4578 24.0532 22.386 23.9914C22.3143 23.9296 22.2156 23.8943 22.0811 23.8943C21.8928 23.8943 21.7044 23.9473 21.534 24.0356C21.3546 24.1327 21.2201 24.2651 21.1215 24.4329C21.0318 24.6007 20.9421 24.8744 20.8524 25.2453L20.5833 26.5345H20.0273V26.5433Z" fill="#919191"/>
<path d="M24.116 24.7773H25.8649C25.8649 24.7243 25.8739 24.689 25.8739 24.6625C25.8739 24.4064 25.8021 24.2121 25.6676 24.0709C25.5331 23.9384 25.3627 23.8678 25.1474 23.8678C24.9232 23.8678 24.708 23.9472 24.5286 24.0974C24.3492 24.2475 24.2057 24.477 24.116 24.7773ZM25.6676 25.519L26.1788 25.572C26.0981 25.8192 25.9367 26.0488 25.6676 26.2784C25.4075 26.4991 25.0846 26.6139 24.7169 26.6139C24.4837 26.6139 24.2685 26.561 24.0801 26.4638C23.8918 26.3667 23.7393 26.2166 23.6317 26.0135C23.5331 25.8192 23.4882 25.5896 23.4882 25.3424C23.4882 25.0157 23.56 24.6978 23.7214 24.3887C23.8828 24.0797 24.0891 23.8501 24.3313 23.7C24.5824 23.5499 24.8604 23.4792 25.1474 23.4792C25.5151 23.4792 25.8111 23.594 26.0353 23.8148C26.2595 24.0355 26.3672 24.3358 26.3672 24.7243C26.3672 24.8744 26.3492 25.0245 26.3313 25.1746H24.0353C24.0263 25.2364 24.0263 25.2894 24.0263 25.3336C24.0263 25.6161 24.0891 25.8281 24.2147 25.9782C24.3582 26.1283 24.5196 26.1989 24.708 26.1989C24.8873 26.1989 25.0757 26.1371 25.2461 26.0223C25.4344 25.9075 25.56 25.7397 25.6676 25.519Z" fill="#919191"/>
<path d="M29.0318 25.2894C29.0318 25.5014 29.0498 25.6603 29.0946 25.7839C29.1395 25.9075 29.2202 26.0047 29.3188 26.0841C29.4175 26.1636 29.543 26.2078 29.6955 26.2078C29.9287 26.2078 30.1529 26.0841 30.3413 25.8457C30.6013 25.5278 30.7359 25.1305 30.7359 24.6625C30.7359 24.4241 30.6731 24.2387 30.5475 24.1062C30.413 23.9738 30.2516 23.9031 30.0632 23.9031C29.9287 23.9031 29.8211 23.9296 29.7224 23.9826C29.6148 24.0356 29.5072 24.1327 29.4085 24.2563C29.3099 24.3888 29.2202 24.5565 29.1484 24.7508C29.0677 24.9539 29.0318 25.1305 29.0318 25.2894ZM30.4937 26.1106C30.1888 26.4462 29.8659 26.6139 29.543 26.6139C29.2471 26.6139 28.996 26.508 28.8076 26.2961C28.6013 26.0841 28.5117 25.7839 28.5117 25.3866C28.5117 25.0245 28.5834 24.689 28.7448 24.3888C28.8973 24.0885 29.0856 23.859 29.3188 23.7088C29.552 23.5587 29.7942 23.4793 30.0274 23.4793C30.413 23.4793 30.709 23.6559 30.9063 24.0179L31.2471 22.4108H31.7852L30.8883 26.5433H30.3951L30.4937 26.1106Z" fill="#919191"/>
<path d="M31.7226 26.5433L32.3773 23.5499H32.8437L32.7091 24.1592C32.8706 23.9296 33.023 23.753 33.1845 23.647C33.337 23.5322 33.4894 23.4792 33.6509 23.4792C33.7585 23.4792 33.884 23.5146 34.0455 23.5852L33.8213 24.062C33.7316 24.0002 33.6329 23.9649 33.5163 23.9649C33.3369 23.9649 33.1396 24.062 32.9513 24.2651C32.763 24.4682 32.6015 24.8214 32.4849 25.3424L32.2248 26.5433H31.7226Z" fill="#919191"/>
<path d="M34.4754 24.7773H36.2243V24.6625C36.2243 24.4064 36.1525 24.2121 36.018 24.0709C35.8835 23.9384 35.7131 23.8678 35.4978 23.8678C35.2736 23.8678 35.0763 23.9472 34.879 24.0974C34.7086 24.2475 34.5651 24.477 34.4754 24.7773ZM36.009 25.519L36.5292 25.572C36.4575 25.8192 36.2871 26.0488 36.027 26.2784C35.7579 26.4991 35.444 26.6139 35.0673 26.6139C34.8341 26.6139 34.6189 26.561 34.4306 26.4638C34.2422 26.3667 34.0987 26.2166 34.0001 26.0135C33.9014 25.8192 33.8476 25.5896 33.8476 25.3424C33.8476 25.0157 33.9283 24.6978 34.0897 24.3887C34.2422 24.0797 34.4395 23.8501 34.6996 23.7C34.9507 23.5499 35.2198 23.4792 35.5068 23.4792C35.8835 23.4792 36.1705 23.594 36.3947 23.8148C36.6189 24.0355 36.7265 24.3358 36.7265 24.7243C36.7265 24.8744 36.7176 25.0245 36.6907 25.1746H34.3947C34.3947 25.2364 34.3857 25.2894 34.3857 25.3336C34.3857 25.6161 34.4575 25.8281 34.592 25.9782C34.7265 26.1283 34.888 26.1989 35.0853 26.1989C35.2646 26.1989 35.435 26.1371 35.6234 26.0223C35.7759 25.9075 35.9193 25.7397 36.009 25.519Z" fill="#919191"/>
<path d="M39.362 25.0246C39.2903 25.0511 39.2096 25.0776 39.1288 25.0864C39.0392 25.1041 38.8957 25.1129 38.7073 25.1306C38.3934 25.157 38.1692 25.1924 38.0526 25.2277C37.9181 25.2718 37.8284 25.3337 37.7567 25.422C37.6939 25.5103 37.667 25.6074 37.667 25.7133C37.667 25.8546 37.7208 25.9694 37.8194 26.0665C37.9181 26.1637 38.0706 26.2078 38.2499 26.2078C38.4293 26.2078 38.5907 26.1637 38.7701 26.0754C38.9315 25.9871 39.0571 25.8635 39.1558 25.7045C39.2365 25.5456 39.3082 25.316 39.362 25.0246ZM39.1647 26.1725C38.9854 26.3226 38.797 26.4374 38.6356 26.5081C38.4652 26.5787 38.2768 26.614 38.0885 26.614C37.7925 26.614 37.5593 26.5345 37.3889 26.3668C37.2096 26.199 37.1288 25.9959 37.1288 25.7398C37.1288 25.5721 37.1737 25.4219 37.2365 25.2983C37.3172 25.1659 37.4248 25.0687 37.5593 24.9893C37.6939 24.9098 37.8463 24.8568 38.0347 24.8215C38.1602 24.795 38.3755 24.7774 38.7163 24.7685C39.0481 24.7597 39.2903 24.7244 39.4338 24.6714C39.4786 24.5301 39.4966 24.4153 39.4966 24.327C39.4966 24.2122 39.4517 24.1151 39.362 24.0445C39.2365 23.9473 39.0571 23.9032 38.8239 23.9032C38.5997 23.9032 38.4203 23.9473 38.2768 24.0445C38.1244 24.1416 38.0257 24.274 37.9629 24.4506L37.4248 24.4065C37.5324 24.1063 37.7118 23.8767 37.936 23.7266C38.1782 23.5676 38.4831 23.4882 38.8329 23.4882C39.2185 23.4882 39.5324 23.5765 39.7567 23.7531C39.9271 23.8855 40.0078 24.0533 40.0078 24.2652C40.0078 24.4241 39.9898 24.6096 39.936 24.8215L39.7656 25.5632C39.7118 25.8016 39.6849 25.9959 39.6849 26.1372C39.6849 26.2343 39.7028 26.3668 39.7477 26.5434H39.2096C39.2006 26.4462 39.1737 26.3226 39.1647 26.1725Z" fill="#919191"/>
<path d="M40.4023 26.5433L41.057 23.5499H41.5861L41.4875 24.0444C41.6758 23.8325 41.8552 23.6823 42.0166 23.6029C42.1691 23.5234 42.3395 23.4792 42.5189 23.4792C42.7072 23.4792 42.8687 23.5322 43.0032 23.6294C43.1377 23.7265 43.2184 23.8678 43.2543 24.0444C43.4157 23.8589 43.5772 23.7177 43.7565 23.6205C43.927 23.5322 44.1063 23.4792 44.3036 23.4792C44.5637 23.4792 44.761 23.5411 44.8866 23.6559C45.0211 23.7706 45.0929 23.9384 45.0929 24.1592C45.0929 24.2475 45.066 24.4064 45.0211 24.6183L44.5996 26.5521H44.0705L44.5009 24.5653C44.5458 24.4064 44.5637 24.2916 44.5637 24.221C44.5637 24.1238 44.5368 24.0444 44.4651 23.9914C44.4023 23.9296 44.3126 23.9031 44.196 23.9031C44.0435 23.9031 43.8821 23.9472 43.7117 24.0444C43.5503 24.1327 43.4157 24.2563 43.335 24.4064C43.2453 24.5565 43.1646 24.7861 43.0929 25.0952L42.779 26.5433H42.2409L42.6893 24.5212C42.7162 24.3799 42.7252 24.2828 42.7252 24.2298C42.7252 24.1327 42.6983 24.0532 42.6355 23.9914C42.5727 23.9296 42.483 23.9031 42.3843 23.9031C42.2319 23.9031 42.0794 23.9472 41.918 24.0444C41.7476 24.1415 41.613 24.2651 41.5144 24.4329C41.4157 24.6007 41.3261 24.8303 41.2633 25.1393L40.9494 26.5521L40.4023 26.5433Z" fill="#919191"/>
<path d="M47.8673 25.3071V25.4042C47.8673 25.6603 47.9301 25.8546 48.0556 25.987C48.1812 26.1195 48.3426 26.1901 48.531 26.1901C48.7104 26.1901 48.8808 26.1283 49.0332 26.0047C49.1947 25.8811 49.3202 25.6868 49.4189 25.4219C49.5175 25.157 49.5713 24.9097 49.5713 24.689C49.5713 24.4417 49.5086 24.2387 49.383 24.1062C49.2574 23.9649 49.096 23.8943 48.9166 23.8943C48.7283 23.8943 48.5489 23.9649 48.3875 24.1062C48.2261 24.2475 48.0915 24.4682 47.9839 24.7596C47.9121 24.9804 47.8673 25.1658 47.8673 25.3071ZM47.0781 26.5433L47.9749 22.4108H48.513L48.1902 23.8855C48.3606 23.7353 48.513 23.6294 48.6476 23.5676C48.7911 23.5058 48.9346 23.4793 49.087 23.4793C49.374 23.4793 49.6162 23.5852 49.8135 23.7972C50.0018 24.0091 50.1095 24.3093 50.1095 24.7067C50.1095 24.9716 50.0736 25.2188 49.9839 25.4307C49.9032 25.6515 49.8135 25.8369 49.6879 25.987C49.5803 26.1371 49.4548 26.2519 49.3382 26.349C49.2126 26.4373 49.087 26.508 48.9615 26.5521C48.8269 26.5963 48.7014 26.6139 48.5848 26.6139C48.3695 26.6139 48.1991 26.561 48.0377 26.455C47.8852 26.349 47.7507 26.1901 47.67 25.9782L47.5534 26.5433H47.0781Z" fill="#919191"/>
<path d="M51.1668 24.7773H52.9157C52.9247 24.7243 52.9247 24.689 52.9247 24.6625C52.9247 24.4064 52.8529 24.2121 52.7184 24.0709C52.5838 23.9384 52.4134 23.8678 52.2072 23.8678C51.983 23.8678 51.7767 23.9472 51.5883 24.0974C51.4 24.2475 51.2565 24.477 51.1668 24.7773ZM52.7184 25.519L53.2386 25.572C53.1668 25.8192 52.9964 26.0488 52.7184 26.2784C52.4583 26.4991 52.1444 26.6139 51.7677 26.6139C51.5345 26.6139 51.3193 26.561 51.1309 26.4638C50.9426 26.3667 50.7991 26.2166 50.6915 26.0135C50.5928 25.8192 50.539 25.5896 50.539 25.3424C50.539 25.0157 50.6197 24.6978 50.7722 24.3887C50.9336 24.0797 51.1399 23.8501 51.391 23.7C51.6332 23.5499 51.9022 23.4792 52.1982 23.4792C52.5749 23.4792 52.8708 23.594 53.0861 23.8148C53.3103 24.0355 53.4179 24.3358 53.4179 24.7243C53.4179 24.8744 53.4 25.0245 53.3821 25.1746H51.0861C51.0771 25.2364 51.0771 25.2894 51.0771 25.3336C51.0771 25.6161 51.1399 25.8281 51.2834 25.9782C51.4179 26.1283 51.5794 26.1989 51.7677 26.1989C51.9471 26.1989 52.1354 26.1371 52.3058 26.0223C52.4852 25.9075 52.6108 25.7397 52.7184 25.519Z" fill="#919191"/>
<path d="M54.4036 25.2188C54.4036 25.4219 54.4216 25.5808 54.4664 25.6779C54.5292 25.8192 54.6099 25.934 54.7175 26.0135C54.8162 26.093 54.9418 26.1283 55.0763 26.1283C55.2557 26.1283 55.4261 26.0665 55.6054 25.9517C55.7758 25.8369 55.9193 25.6515 56.018 25.4042C56.1256 25.157 56.1794 24.9186 56.1794 24.6978C56.1794 24.4506 56.1077 24.2563 55.9642 24.1062C55.8207 23.9649 55.6413 23.8854 55.435 23.8854C55.3005 23.8854 55.1839 23.9208 55.0583 23.9826C54.9328 24.0532 54.8252 24.1503 54.7175 24.2916C54.6189 24.4241 54.5382 24.5918 54.4844 24.7773C54.4216 24.9715 54.4036 25.1216 54.4036 25.2188ZM53.74 26.817L54.2781 26.8612C54.2781 26.976 54.287 27.0643 54.3229 27.1261C54.3678 27.1879 54.4126 27.232 54.4844 27.2585C54.583 27.3027 54.7086 27.3203 54.861 27.3203C55.1839 27.3203 55.4171 27.2409 55.5516 27.0819C55.6503 26.976 55.731 26.7376 55.8117 26.3843L55.8655 26.1371C55.5965 26.4108 55.3005 26.5433 54.9866 26.5433C54.6727 26.5433 54.4126 26.4285 54.1974 26.2077C53.9821 25.987 53.8745 25.6691 53.8745 25.2629C53.8745 24.9274 53.9642 24.6183 54.1256 24.3358C54.296 24.0532 54.4933 23.8413 54.7265 23.7C54.9597 23.5587 55.1929 23.4792 55.444 23.4792C55.8476 23.4792 56.1615 23.6647 56.3857 24.0355L56.4844 23.5411H56.9687L56.3409 26.4373C56.2781 26.7552 56.1884 27.0025 56.0808 27.1791C55.9731 27.3557 55.8117 27.4969 55.6144 27.5941C55.4081 27.6912 55.1929 27.7442 54.9238 27.7442C54.6727 27.7442 54.4574 27.7177 54.2781 27.647C54.0987 27.5852 53.9642 27.4969 53.8745 27.3733C53.7848 27.2497 53.74 27.1172 53.74 26.9583C53.722 26.9142 53.722 26.87 53.74 26.817Z" fill="#919191"/>
<path d="M57.8659 22.9848L57.9915 22.4108H58.5296L58.3951 22.9848H57.8659ZM57.0857 26.5433L57.7404 23.5499H58.2695L57.6238 26.5433H57.0857Z" fill="#919191"/>
<path d="M58.4413 26.5433L59.0961 23.5499H59.5714L59.4638 24.0709C59.679 23.8678 59.8674 23.7177 60.0467 23.6205C60.2261 23.5234 60.4144 23.4792 60.6028 23.4792C60.8539 23.4792 61.0602 23.5499 61.2037 23.6735C61.3472 23.806 61.4189 23.9826 61.4189 24.2033C61.4189 24.3093 61.401 24.4859 61.3472 24.7243L60.9526 26.5433H60.4144L60.827 24.6448C60.8718 24.4594 60.8898 24.3269 60.8898 24.2386C60.8898 24.1415 60.8629 24.062 60.7911 23.9914C60.7194 23.9296 60.6118 23.8943 60.4772 23.8943C60.2082 23.8943 59.957 23.9914 59.7508 24.1768C59.5355 24.3623 59.3831 24.689 59.2844 25.1481L58.9795 26.5433H58.4413Z" fill="#919191"/>
<path d="M61.8377 25.5191L62.3668 25.4926C62.3668 25.6427 62.3848 25.7663 62.4386 25.8635C62.4924 25.9694 62.5731 26.0489 62.6987 26.1195C62.8242 26.1902 62.9677 26.2167 63.1381 26.2167C63.3713 26.2167 63.5507 26.1725 63.6673 26.0842C63.7928 25.9959 63.8466 25.89 63.8466 25.7663C63.8466 25.678 63.8108 25.5897 63.739 25.5103C63.6673 25.4308 63.4969 25.3337 63.2099 25.2189C62.9229 25.1041 62.7525 25.0246 62.6718 24.9716C62.5372 24.8922 62.4386 24.8039 62.3758 24.6979C62.304 24.5919 62.2771 24.4772 62.2771 24.3359C62.2771 24.0975 62.3668 23.8944 62.5731 23.7266C62.7614 23.5588 63.0395 23.4705 63.3892 23.4705C63.7839 23.4705 64.0798 23.5588 64.2771 23.7354C64.4834 23.912 64.591 24.1416 64.6 24.4242L64.0709 24.4595C64.0709 24.2741 63.9991 24.1328 63.8825 24.0356C63.748 23.9297 63.5776 23.8767 63.3444 23.8767C63.165 23.8767 63.0215 23.9209 62.9229 24.0003C62.8242 24.0798 62.7704 24.1681 62.7704 24.2652C62.7704 24.3624 62.8063 24.4418 62.9049 24.5125C62.9677 24.5655 63.1202 24.6361 63.3623 24.7421C63.7659 24.9098 64.017 25.0423 64.1336 25.1394C64.2951 25.2984 64.3848 25.4838 64.3848 25.7045C64.3848 25.8546 64.3309 25.9959 64.2413 26.1372C64.1426 26.2785 63.9991 26.3933 63.8108 26.4816C63.6045 26.5699 63.3892 26.614 63.1202 26.614C62.7525 26.614 62.4565 26.5257 62.1964 26.358C61.9363 26.1814 61.8197 25.9076 61.8377 25.5191Z" fill="#919191"/>
<path d="M7.08084 21.3442C3.11314 21.3442 0.794933 18.9738 0.61661 15.6291L0.601749 15.4546H3.88587L3.90073 15.5855C4.03448 17.1851 5.05984 18.4358 7.05112 18.4358C9.25044 18.4358 10.4393 17.1561 10.4393 14.7566V0.0108643H13.768V14.7857C13.768 18.9157 11.2863 21.3442 7.08084 21.3442Z" fill="#BC2228"/>
<path d="M24.0959 21.3006C19.6081 21.3006 16.6806 18.2613 16.6806 13.346V13.3169C16.6806 8.43077 19.6378 5.406 24.081 5.406C28.5391 5.406 31.5112 8.41623 31.5112 13.3169V13.346C31.5112 18.2758 28.5688 21.3006 24.0959 21.3006ZM24.1107 18.6684C26.6221 18.6684 28.227 16.7198 28.227 13.346V13.3169C28.227 9.97224 26.5924 8.03813 24.081 8.03813C21.6142 8.03813 19.9647 9.97224 19.9647 13.3169V13.346C19.9647 16.7343 21.5993 18.6684 24.1107 18.6684Z" fill="#BC2228"/>
<path d="M42.2997 21.3006C40.0558 21.3006 38.3172 20.1954 37.3958 18.4067H37.3215V20.9952H34.1117V0.0108643H37.3215V8.29989H37.3958C38.332 6.49666 40.1153 5.406 42.3294 5.406C46.2526 5.406 48.8382 8.45985 48.8382 13.3315V13.346C48.8382 18.2176 46.2674 21.3006 42.2997 21.3006ZM41.4527 18.5957C43.9789 18.5957 45.5541 16.6035 45.5541 13.346V13.3315C45.5541 10.1031 43.9789 8.0963 41.4527 8.0963C39.0305 8.0963 37.3067 10.1613 37.3067 13.3315V13.346C37.3067 16.5307 39.0156 18.5957 41.4527 18.5957Z" fill="#BC2228"/>
<path d="M57.1749 21.3006C53.2666 21.3006 50.9781 19.4101 50.6512 16.618L50.6363 16.4871H53.8164L53.8462 16.6325C54.1434 18.0431 55.2133 18.872 57.1897 18.872C59.1216 18.872 60.2807 18.0868 60.2807 16.8507V16.8361C60.2807 15.8473 59.716 15.2801 58.0368 14.8875L55.4808 14.3203C52.5087 13.6514 51.0376 12.2554 51.0376 10.0304V10.0159C51.0376 7.28194 53.4747 5.406 57.0709 5.406C60.7711 5.406 63.0001 7.42736 63.1636 10.0304L63.1784 10.2049H60.1618L60.1469 10.1031C59.9537 8.76524 58.8838 7.83454 57.0709 7.83454C55.3471 7.83454 54.2623 8.63436 54.2623 9.8559V9.87044C54.2623 10.8157 54.9012 11.4555 56.5805 11.8482L59.1216 12.4153C62.3165 13.1424 63.5351 14.3785 63.5351 16.5744V16.5889C63.5351 19.381 60.8602 21.3006 57.1749 21.3006Z" fill="#BC2228"/>
</svg>
