<svg width="71" height="32" viewBox="0 0 71 32" fill="none" xmlns="http://www.w3.org/2000/svg">
<g clip-path="url(#clip0_43_16897)">
<path d="M8.87113 14.5448H3.53519V3.33643H8.85162C8.85162 3.33643 14.4705 3.0828 14.4705 8.63335C14.4705 14.0571 9.3101 14.5448 8.87113 14.5448ZM11.3684 16.6519C11.3684 16.6519 18.2163 15.3057 18.2163 8.20413C18.2163 1.0928 11.6123 0.0587769 9.57348 0.0587769H0.00390625V30.9624H3.53519V17.6664H6.44215C8.08098 17.6664 9.71005 17.9298 11.9732 21.6074L17.4164 30.9526H21.6306L14.9875 20.0661C14.9875 20.0661 13.3877 17.286 11.3684 16.6519Z" fill="#BC2228"/>
<path d="M27.4063 3.33643V0.0587769H23.8555V3.29741" fill="#919191"/>
<path d="M23.8555 4.49734V31.0893H27.4063V4.52661" fill="#919191"/>
<path d="M69.791 4.49734H66.25V31.0502H69.791V4.49734Z" fill="#919191"/>
<path d="M64.0737 4.44852H49.3242V8.04808H64.0737V4.44852Z" fill="#919191"/>
<path d="M64.0737 27.4799H49.3242V31.0795H64.0737V27.4799Z" fill="#919191"/>
<path d="M59.2742 16.1739H49.3242V19.7832H59.2742V16.1739Z" fill="#919191"/>
<path d="M40.7021 4.49734H37.1318L27.2891 17.7738L37.1318 31.0502H40.7021L30.8789 17.7738L40.7021 4.49734Z" fill="#919191"/>
<path d="M43.6671 4.49734L33.9609 17.7738L43.6671 31.0502H47.2081L37.4922 17.7738L47.2081 4.49734H43.6671Z" fill="#BC2228"/>
</g>
<defs>
<clipPath id="clip0_43_16897">
<rect width="70.4" height="32" fill="white" transform="translate(0 -0.255737)"/>
</clipPath>
</defs>
</svg>
