<svg width="316" height="237" viewBox="0 0 316 237" fill="none" xmlns="http://www.w3.org/2000/svg">
<g opacity="0.6">
<g style="mix-blend-mode:screen">
<path d="M-1 236L49.0243 187.125L-1 169.118V236Z" stroke="url(#paint0_linear_5_19715)" stroke-width="0.77" stroke-linecap="round" stroke-linejoin="round"/>
<path d="M49.0243 187.124L37.0228 145.968L-1 169.118L49.0243 187.124Z" stroke="url(#paint1_linear_5_19715)" stroke-width="0.77" stroke-linecap="round" stroke-linejoin="round"/>
<path d="M49.0243 187.124L97.0469 169.118L37.0228 145.968L49.0243 187.124Z" stroke="url(#paint2_linear_5_19715)" stroke-width="0.77" stroke-linecap="round" stroke-linejoin="round"/>
<path d="M37.0228 145.968L-1 129.676V169.118L37.0228 145.968Z" stroke="url(#paint3_linear_5_19715)" stroke-width="0.77" stroke-linecap="round" stroke-linejoin="round"/>
<path d="M97.0469 169.118L77.326 139.102L37.0228 145.968L97.0469 169.118Z" stroke="url(#paint4_linear_5_19715)" stroke-width="0.77" stroke-linecap="round" stroke-linejoin="round"/>
<path d="M37.0228 145.968L22.1075 120.749L77.326 139.102L37.0228 145.968Z" stroke="url(#paint5_linear_5_19715)" stroke-width="0.77" stroke-linecap="round" stroke-linejoin="round"/>
<path d="M22.1076 120.749L-1 129.676L37.0228 145.968L22.1076 120.749Z" stroke="url(#paint6_linear_5_19715)" stroke-width="0.77" stroke-linecap="round" stroke-linejoin="round"/>
<path d="M22.1076 120.749L-1 98.8072V129.676L22.1076 120.749Z" stroke="url(#paint7_linear_5_19715)" stroke-width="0.77" stroke-linecap="round" stroke-linejoin="round"/>
<path d="M22.1075 120.749L61.8871 98.8072L77.326 139.102L22.1075 120.749Z" stroke="url(#paint8_linear_5_19715)" stroke-width="0.77" stroke-linecap="round" stroke-linejoin="round"/>
<path d="M22.1075 120.749L41.4652 79.4916L61.8871 98.8071L22.1075 120.749Z" stroke="url(#paint9_linear_5_19715)" stroke-width="0.77" stroke-linecap="round" stroke-linejoin="round"/>
<path d="M41.4653 79.4916L-1 98.8071L22.1076 120.749L41.4653 79.4916Z" stroke="url(#paint10_linear_5_19715)" stroke-width="0.77" stroke-linecap="round" stroke-linejoin="round"/>
<path d="M41.4653 79.4917L-1 66.2234V98.8072L41.4653 79.4917Z" stroke="url(#paint11_linear_5_19715)" stroke-width="0.77" stroke-linecap="round" stroke-linejoin="round"/>
<path d="M77.3261 139.102L110.763 114.238L61.8872 98.8072L77.3261 139.102Z" stroke="url(#paint12_linear_5_19715)" stroke-width="0.77" stroke-linecap="round" stroke-linejoin="round"/>
<path d="M61.887 98.8072L97.0467 66.2234L41.4651 79.4917L61.887 98.8072Z" stroke="url(#paint13_linear_5_19715)" stroke-width="0.77" stroke-linecap="round" stroke-linejoin="round"/>
<path d="M41.4651 79.4915L53.3145 50.7843L97.0467 66.2232L41.4651 79.4915Z" stroke="url(#paint14_linear_5_19715)" stroke-width="0.77" stroke-linecap="round" stroke-linejoin="round"/>
<path d="M53.3145 50.7843L18.0112 25.0585L41.4651 79.4915L53.3145 50.7843Z" stroke="url(#paint15_linear_5_19715)" stroke-width="0.77" stroke-linecap="round" stroke-linejoin="round"/>
<path d="M18.0114 25.0585L-1 66.2232L41.4653 79.4915L18.0114 25.0585Z" stroke="url(#paint16_linear_5_19715)" stroke-width="0.77" stroke-linecap="round" stroke-linejoin="round"/>
<path d="M18.0114 25.0586L-1 0V66.2232L18.0114 25.0586Z" stroke="url(#paint17_linear_5_19715)" stroke-width="0.77" stroke-linecap="round" stroke-linejoin="round"/>
<path d="M18.0114 25.0586L77.326 0H-1L18.0114 25.0586Z" stroke="url(#paint18_linear_5_19715)" stroke-width="0.77" stroke-linecap="round" stroke-linejoin="round"/>
<path d="M18.0112 25.0585H77.3258L53.3145 50.7843L18.0112 25.0585Z" stroke="url(#paint19_linear_5_19715)" stroke-width="0.77" stroke-linecap="round" stroke-linejoin="round"/>
<path d="M77.3258 25.0586V0L18.0112 25.0586H77.3258Z" stroke="url(#paint20_linear_5_19715)" stroke-width="0.77" stroke-linecap="round" stroke-linejoin="round"/>
<path d="M110.763 114.238L153.642 129.676L119.335 82.5153L110.763 114.238Z" stroke="url(#paint21_linear_5_19715)" stroke-width="0.77" stroke-linecap="round" stroke-linejoin="round"/>
<path d="M119.335 82.5153L97.0469 66.2234L110.763 114.238L119.335 82.5153Z" stroke="url(#paint22_linear_5_19715)" stroke-width="0.77" stroke-linecap="round" stroke-linejoin="round"/>
<path d="M97.0469 66.2234L61.8872 98.8072L110.763 114.238L97.0469 66.2234Z" stroke="url(#paint23_linear_5_19715)" stroke-width="0.77" stroke-linecap="round" stroke-linejoin="round"/>
<path d="M77.3261 25.0585L97.047 66.2232L53.3148 50.7843L77.3261 25.0585Z" stroke="url(#paint24_linear_5_19715)" stroke-width="0.77" stroke-linecap="round" stroke-linejoin="round"/>
<path d="M77.3262 25.0586H123.626L77.3262 0V25.0586Z" stroke="url(#paint25_linear_5_19715)" stroke-width="0.77" stroke-linecap="round" stroke-linejoin="round"/>
<path d="M123.626 25.0585L97.047 66.2232L77.3262 25.0585H123.626Z" stroke="url(#paint26_linear_5_19715)" stroke-width="0.77" stroke-linecap="round" stroke-linejoin="round"/>
<path d="M123.626 25.0585L119.335 82.5151L97.0469 66.2232L123.626 25.0585Z" stroke="url(#paint27_linear_5_19715)" stroke-width="0.77" stroke-linecap="round" stroke-linejoin="round"/>
<path d="M153.642 129.676V70.5052L119.335 82.5151L153.642 129.676Z" stroke="url(#paint28_linear_5_19715)" stroke-width="0.77" stroke-linecap="round" stroke-linejoin="round"/>
<path d="M119.335 82.5151L123.626 25.0585L153.642 70.5052L119.335 82.5151Z" stroke="url(#paint29_linear_5_19715)" stroke-width="0.77" stroke-linecap="round" stroke-linejoin="round"/>
<path d="M123.626 25.0586L153.642 0H77.3262L123.626 25.0586Z" stroke="url(#paint30_linear_5_19715)" stroke-width="0.77" stroke-linecap="round" stroke-linejoin="round"/>
<path d="M153.642 70.5054L176.792 18.9609L123.626 25.0588L153.642 70.5054Z" stroke="url(#paint31_linear_5_19715)" stroke-width="0.77" stroke-linecap="round" stroke-linejoin="round"/>
<path d="M153.642 70.5054L194.798 50.7846L176.792 18.9609L153.642 70.5054Z" stroke="url(#paint32_linear_5_19715)" stroke-width="0.77" stroke-linecap="round" stroke-linejoin="round"/>
<path d="M176.792 18.9607L153.642 0L123.626 25.0586L176.792 18.9607Z" stroke="url(#paint33_linear_5_19715)" stroke-width="0.77" stroke-linecap="round" stroke-linejoin="round"/>
<path d="M194.798 50.7846L237.187 55.9281L176.792 18.9609L194.798 50.7846Z" stroke="url(#paint34_linear_5_19715)" stroke-width="0.77" stroke-linecap="round" stroke-linejoin="round"/>
<path d="M237.187 55.9279L259.104 18.9607L228.235 0L237.187 55.9279Z" stroke="url(#paint35_linear_5_19715)" stroke-width="0.77" stroke-linecap="round" stroke-linejoin="round"/>
<path d="M237.187 55.9279L228.235 0L176.792 18.9607L237.187 55.9279Z" stroke="url(#paint36_linear_5_19715)" stroke-width="0.77" stroke-linecap="round" stroke-linejoin="round"/>
<path d="M176.792 18.9607L153.642 0H228.235L176.792 18.9607Z" stroke="url(#paint37_linear_5_19715)" stroke-width="0.77" stroke-linecap="round" stroke-linejoin="round"/>
<path d="M259.104 18.9606L302.836 45.6408L286.544 12.5334L259.104 18.9606Z" stroke="url(#paint38_linear_5_19715)" stroke-width="0.77" stroke-linecap="round" stroke-linejoin="round"/>
<path d="M286.544 12.5335L228.235 0L259.104 18.9607L286.544 12.5335Z" stroke="url(#paint39_linear_5_19715)" stroke-width="0.77" stroke-linecap="round" stroke-linejoin="round"/>
<path d="M286.544 12.5335L313.132 0H228.235L286.544 12.5335Z" stroke="url(#paint40_linear_5_19715)" stroke-width="0.77" stroke-linecap="round" stroke-linejoin="round"/>
<path d="M302.836 45.6409L313.132 0L286.544 12.5335L302.836 45.6409Z" stroke="url(#paint41_linear_5_19715)" stroke-width="0.77" stroke-linecap="round" stroke-linejoin="round"/>
<path d="M156.243 103.494L181.961 110.513L197.332 87.2194L156.243 103.494Z" stroke="url(#paint42_linear_5_19715)" stroke-width="0.77" stroke-linecap="round" stroke-linejoin="round"/>
<path d="M156.243 103.495L168.566 85.0659L197.332 87.2196L156.243 103.495Z" stroke="url(#paint43_linear_5_19715)" stroke-width="0.77" stroke-linecap="round" stroke-linejoin="round"/>
<path d="M61.8872 202.563L123.626 187.124L97.0469 215.418L61.8872 202.563Z" stroke="url(#paint44_linear_5_19715)" stroke-width="0.77" stroke-linecap="round" stroke-linejoin="round"/>
<path d="M102.545 149L118.33 130.563L144.352 160.36L102.545 149Z" stroke="url(#paint45_linear_5_19715)" stroke-width="0.77" stroke-linecap="round" stroke-linejoin="round"/>
<path d="M30.0972 219.539L43.5597 212.386L45.4178 233.374L30.0972 219.539Z" stroke="url(#paint46_linear_5_19715)" stroke-width="0.77" stroke-linecap="round" stroke-linejoin="round"/>
<path d="M144.352 197.454L153.279 207.909L135.433 208.594L144.352 197.454Z" stroke="url(#paint47_linear_5_19715)" stroke-width="0.77" stroke-linecap="round" stroke-linejoin="round"/>
<path d="M73.6017 222.504L77.1742 235.468L65.6458 226.423L73.6017 222.504Z" stroke="url(#paint48_linear_5_19715)" stroke-width="0.77" stroke-linecap="round" stroke-linejoin="round"/>
</g>
<path style="mix-blend-mode:screen" d="M18.9235 38.1157C26.1348 38.1157 31.9806 32.2698 31.9806 25.0586C31.9806 17.8473 26.1348 12.0014 18.9235 12.0014C11.7122 12.0014 5.86633 17.8473 5.86633 25.0586C5.86633 32.2698 11.7122 38.1157 18.9235 38.1157Z" fill="url(#paint49_radial_5_19715)"/>
<path style="mix-blend-mode:screen" d="M77.326 38.1157C84.5372 38.1157 90.3831 32.2698 90.3831 25.0586C90.3831 17.8473 84.5372 12.0014 77.326 12.0014C70.1147 12.0014 64.2688 17.8473 64.2688 25.0586C64.2688 32.2698 70.1147 38.1157 77.326 38.1157Z" fill="url(#paint50_radial_5_19715)"/>
<path style="mix-blend-mode:screen" d="M123.828 38.6477C131.039 38.6477 136.885 32.8018 136.885 25.5905C136.885 18.3793 131.039 12.5334 123.828 12.5334C116.617 12.5334 110.771 18.3793 110.771 25.5905C110.771 32.8018 116.617 38.6477 123.828 38.6477Z" fill="url(#paint51_radial_5_19715)"/>
<path style="mix-blend-mode:screen" d="M259.307 32.5501C266.518 32.5501 272.364 26.7042 272.364 19.4929C272.364 12.2817 266.518 6.43579 259.307 6.43579C252.096 6.43579 246.25 12.2817 246.25 19.4929C246.25 26.7042 252.096 32.5501 259.307 32.5501Z" fill="url(#paint52_radial_5_19715)"/>
<path style="mix-blend-mode:screen" d="M97.0469 79.2806C104.258 79.2806 110.104 73.4347 110.104 66.2234C110.104 59.0121 104.258 53.1663 97.0469 53.1663C89.8356 53.1663 83.9897 59.0121 83.9897 66.2234C83.9897 73.4347 89.8356 79.2806 97.0469 79.2806Z" fill="url(#paint53_radial_5_19715)"/>
<path style="mix-blend-mode:screen" d="M194.798 62.9717C202.01 62.9717 207.856 57.1258 207.856 49.9146C207.856 42.7033 202.01 36.8574 194.798 36.8574C187.587 36.8574 181.741 42.7033 181.741 49.9146C181.741 57.1258 187.587 62.9717 194.798 62.9717Z" fill="url(#paint54_radial_5_19715)"/>
<path style="mix-blend-mode:screen" d="M302.836 57.7942C310.048 57.7942 315.894 51.9483 315.894 44.737C315.894 37.5258 310.048 31.6799 302.836 31.6799C295.625 31.6799 289.779 37.5258 289.779 44.737C289.779 51.9483 295.625 57.7942 302.836 57.7942Z" fill="url(#paint55_radial_5_19715)"/>
<path style="mix-blend-mode:screen" d="M53.3148 63.1404C60.5261 63.1404 66.372 57.2945 66.372 50.0833C66.372 42.872 60.5261 37.0261 53.3148 37.0261C46.1036 37.0261 40.2577 42.872 40.2577 50.0833C40.2577 57.2945 46.1036 63.1404 53.3148 63.1404Z" fill="url(#paint56_radial_5_19715)"/>
<path style="mix-blend-mode:screen" d="M22.1076 133.806C29.3188 133.806 35.1647 127.96 35.1647 120.749C35.1647 113.538 29.3188 107.692 22.1076 107.692C14.8963 107.692 9.05042 113.538 9.05042 120.749C9.05042 127.96 14.8963 133.806 22.1076 133.806Z" fill="url(#paint57_radial_5_19715)"/>
<path style="mix-blend-mode:screen" d="M111.793 127.294C119.004 127.294 124.85 121.449 124.85 114.237C124.85 107.026 119.004 101.18 111.793 101.18C104.582 101.18 98.7358 107.026 98.7358 114.237C98.7358 121.449 104.582 127.294 111.793 127.294Z" fill="url(#paint58_radial_5_19715)"/>
<path style="mix-blend-mode:screen" d="M77.326 152.159C84.5372 152.159 90.3831 146.313 90.3831 139.102C90.3831 131.891 84.5372 126.045 77.326 126.045C70.1147 126.045 64.2688 131.891 64.2688 139.102C64.2688 146.313 70.1147 152.159 77.326 152.159Z" fill="url(#paint59_radial_5_19715)"/>
</g>
<defs>
<linearGradient id="paint0_linear_5_19715" x1="-1.32094" y1="202.555" x2="49.3537" y2="202.555" gradientUnits="userSpaceOnUse">
<stop stop-color="#00B4F3"/>
<stop offset="0.3" stop-color="#0077AD"/>
<stop offset="0.64" stop-color="#003866"/>
<stop offset="0.88" stop-color="#001039"/>
<stop offset="1" stop-color="#000128"/>
</linearGradient>
<linearGradient id="paint1_linear_5_19715" x1="-1.32094" y1="166.542" x2="49.3537" y2="166.542" gradientUnits="userSpaceOnUse">
<stop stop-color="#00B4F3"/>
<stop offset="0.3" stop-color="#0077AD"/>
<stop offset="0.64" stop-color="#003866"/>
<stop offset="0.88" stop-color="#001039"/>
<stop offset="1" stop-color="#000128"/>
</linearGradient>
<linearGradient id="paint2_linear_5_19715" x1="36.6934" y1="166.542" x2="97.3678" y2="166.542" gradientUnits="userSpaceOnUse">
<stop stop-color="#00B4F3"/>
<stop offset="0.3" stop-color="#0077AD"/>
<stop offset="0.64" stop-color="#003866"/>
<stop offset="0.88" stop-color="#001039"/>
<stop offset="1" stop-color="#000128"/>
</linearGradient>
<linearGradient id="paint3_linear_5_19715" x1="-1.32094" y1="149.397" x2="37.3438" y2="149.397" gradientUnits="userSpaceOnUse">
<stop stop-color="#00B4F3"/>
<stop offset="0.3" stop-color="#0077AD"/>
<stop offset="0.64" stop-color="#003866"/>
<stop offset="0.88" stop-color="#001039"/>
<stop offset="1" stop-color="#000128"/>
</linearGradient>
<linearGradient id="paint4_linear_5_19715" x1="36.6934" y1="154.11" x2="97.3678" y2="154.11" gradientUnits="userSpaceOnUse">
<stop stop-color="#00B4F3"/>
<stop offset="0.3" stop-color="#0077AD"/>
<stop offset="0.64" stop-color="#003866"/>
<stop offset="0.88" stop-color="#001039"/>
<stop offset="1" stop-color="#000128"/>
</linearGradient>
<linearGradient id="paint5_linear_5_19715" x1="21.7866" y1="133.359" x2="77.6469" y2="133.359" gradientUnits="userSpaceOnUse">
<stop stop-color="#00B4F3"/>
<stop offset="0.3" stop-color="#0077AD"/>
<stop offset="0.64" stop-color="#003866"/>
<stop offset="0.88" stop-color="#001039"/>
<stop offset="1" stop-color="#000128"/>
</linearGradient>
<linearGradient id="paint6_linear_5_19715" x1="-1.32094" y1="133.359" x2="37.3438" y2="133.359" gradientUnits="userSpaceOnUse">
<stop stop-color="#00B4F3"/>
<stop offset="0.3" stop-color="#0077AD"/>
<stop offset="0.64" stop-color="#003866"/>
<stop offset="0.88" stop-color="#001039"/>
<stop offset="1" stop-color="#000128"/>
</linearGradient>
<linearGradient id="paint7_linear_5_19715" x1="-1.32094" y1="114.238" x2="22.4286" y2="114.238" gradientUnits="userSpaceOnUse">
<stop stop-color="#00B4F3"/>
<stop offset="0.3" stop-color="#0077AD"/>
<stop offset="0.64" stop-color="#003866"/>
<stop offset="0.88" stop-color="#001039"/>
<stop offset="1" stop-color="#000128"/>
</linearGradient>
<linearGradient id="paint8_linear_5_19715" x1="21.7866" y1="118.959" x2="77.6469" y2="118.959" gradientUnits="userSpaceOnUse">
<stop stop-color="#00B4F3"/>
<stop offset="0.3" stop-color="#0077AD"/>
<stop offset="0.64" stop-color="#003866"/>
<stop offset="0.88" stop-color="#001039"/>
<stop offset="1" stop-color="#000128"/>
</linearGradient>
<linearGradient id="paint9_linear_5_19715" x1="21.7866" y1="100.125" x2="62.208" y2="100.125" gradientUnits="userSpaceOnUse">
<stop stop-color="#00B4F3"/>
<stop offset="0.3" stop-color="#0077AD"/>
<stop offset="0.64" stop-color="#003866"/>
<stop offset="0.88" stop-color="#001039"/>
<stop offset="1" stop-color="#000128"/>
</linearGradient>
<linearGradient id="paint10_linear_5_19715" x1="-1.32094" y1="100.125" x2="41.7947" y2="100.125" gradientUnits="userSpaceOnUse">
<stop stop-color="#00B4F3"/>
<stop offset="0.3" stop-color="#0077AD"/>
<stop offset="0.64" stop-color="#003866"/>
<stop offset="0.88" stop-color="#001039"/>
<stop offset="1" stop-color="#000128"/>
</linearGradient>
<linearGradient id="paint11_linear_5_19715" x1="-1.32094" y1="82.5153" x2="41.7947" y2="82.5153" gradientUnits="userSpaceOnUse">
<stop stop-color="#00B4F3"/>
<stop offset="0.3" stop-color="#0077AD"/>
<stop offset="0.64" stop-color="#003866"/>
<stop offset="0.88" stop-color="#001039"/>
<stop offset="1" stop-color="#000128"/>
</linearGradient>
<linearGradient id="paint12_linear_5_19715" x1="61.5663" y1="118.959" x2="111.092" y2="118.959" gradientUnits="userSpaceOnUse">
<stop stop-color="#00B4F3"/>
<stop offset="0.3" stop-color="#0077AD"/>
<stop offset="0.64" stop-color="#003866"/>
<stop offset="0.88" stop-color="#001039"/>
<stop offset="1" stop-color="#000128"/>
</linearGradient>
<linearGradient id="paint13_linear_5_19715" x1="41.1441" y1="82.5153" x2="97.3676" y2="82.5153" gradientUnits="userSpaceOnUse">
<stop stop-color="#00B4F3"/>
<stop offset="0.3" stop-color="#0077AD"/>
<stop offset="0.64" stop-color="#003866"/>
<stop offset="0.88" stop-color="#001039"/>
<stop offset="1" stop-color="#000128"/>
</linearGradient>
<linearGradient id="paint14_linear_5_19715" x1="41.1441" y1="65.1421" x2="97.3676" y2="65.1421" gradientUnits="userSpaceOnUse">
<stop stop-color="#00B4F3"/>
<stop offset="0.3" stop-color="#0077AD"/>
<stop offset="0.64" stop-color="#003866"/>
<stop offset="0.88" stop-color="#001039"/>
<stop offset="1" stop-color="#000128"/>
</linearGradient>
<linearGradient id="paint15_linear_5_19715" x1="17.6903" y1="52.2792" x2="53.6355" y2="52.2792" gradientUnits="userSpaceOnUse">
<stop stop-color="#00B4F3"/>
<stop offset="0.3" stop-color="#0077AD"/>
<stop offset="0.64" stop-color="#003866"/>
<stop offset="0.88" stop-color="#001039"/>
<stop offset="1" stop-color="#000128"/>
</linearGradient>
<linearGradient id="paint16_linear_5_19715" x1="-1.32094" y1="52.2792" x2="41.7947" y2="52.2792" gradientUnits="userSpaceOnUse">
<stop stop-color="#00B4F3"/>
<stop offset="0.3" stop-color="#0077AD"/>
<stop offset="0.64" stop-color="#003866"/>
<stop offset="0.88" stop-color="#001039"/>
<stop offset="1" stop-color="#000128"/>
</linearGradient>
<linearGradient id="paint17_linear_5_19715" x1="-1.32094" y1="33.1074" x2="18.3324" y2="33.1074" gradientUnits="userSpaceOnUse">
<stop stop-color="#00B4F3"/>
<stop offset="0.3" stop-color="#0077AD"/>
<stop offset="0.64" stop-color="#003866"/>
<stop offset="0.88" stop-color="#001039"/>
<stop offset="1" stop-color="#000128"/>
</linearGradient>
<linearGradient id="paint18_linear_5_19715" x1="-1.32094" y1="12.5335" x2="77.647" y2="12.5335" gradientUnits="userSpaceOnUse">
<stop stop-color="#00B4F3"/>
<stop offset="0.3" stop-color="#0077AD"/>
<stop offset="0.64" stop-color="#003866"/>
<stop offset="0.88" stop-color="#001039"/>
<stop offset="1" stop-color="#000128"/>
</linearGradient>
<linearGradient id="paint19_linear_5_19715" x1="17.6903" y1="37.9214" x2="77.6468" y2="37.9214" gradientUnits="userSpaceOnUse">
<stop stop-color="#00B4F3"/>
<stop offset="0.3" stop-color="#0077AD"/>
<stop offset="0.64" stop-color="#003866"/>
<stop offset="0.88" stop-color="#001039"/>
<stop offset="1" stop-color="#000128"/>
</linearGradient>
<linearGradient id="paint20_linear_5_19715" x1="17.6903" y1="12.5335" x2="77.6468" y2="12.5335" gradientUnits="userSpaceOnUse">
<stop stop-color="#00B4F3"/>
<stop offset="0.3" stop-color="#0077AD"/>
<stop offset="0.64" stop-color="#003866"/>
<stop offset="0.88" stop-color="#001039"/>
<stop offset="1" stop-color="#000128"/>
</linearGradient>
<linearGradient id="paint21_linear_5_19715" x1="110.442" y1="106.096" x2="153.963" y2="106.096" gradientUnits="userSpaceOnUse">
<stop stop-color="#00B4F3"/>
<stop offset="0.3" stop-color="#0077AD"/>
<stop offset="0.64" stop-color="#003866"/>
<stop offset="0.88" stop-color="#001039"/>
<stop offset="1" stop-color="#000128"/>
</linearGradient>
<linearGradient id="paint22_linear_5_19715" x1="96.7175" y1="90.2263" x2="119.665" y2="90.2263" gradientUnits="userSpaceOnUse">
<stop stop-color="#00B4F3"/>
<stop offset="0.3" stop-color="#0077AD"/>
<stop offset="0.64" stop-color="#003866"/>
<stop offset="0.88" stop-color="#001039"/>
<stop offset="1" stop-color="#000128"/>
</linearGradient>
<linearGradient id="paint23_linear_5_19715" x1="61.5663" y1="90.2263" x2="111.092" y2="90.2263" gradientUnits="userSpaceOnUse">
<stop stop-color="#00B4F3"/>
<stop offset="0.3" stop-color="#0077AD"/>
<stop offset="0.64" stop-color="#003866"/>
<stop offset="0.88" stop-color="#001039"/>
<stop offset="1" stop-color="#000128"/>
</linearGradient>
<linearGradient id="paint24_linear_5_19715" x1="52.9939" y1="45.6409" x2="97.3679" y2="45.6409" gradientUnits="userSpaceOnUse">
<stop stop-color="#00B4F3"/>
<stop offset="0.3" stop-color="#0077AD"/>
<stop offset="0.64" stop-color="#003866"/>
<stop offset="0.88" stop-color="#001039"/>
<stop offset="1" stop-color="#000128"/>
</linearGradient>
<linearGradient id="paint25_linear_5_19715" x1="76.9968" y1="12.5335" x2="123.947" y2="12.5335" gradientUnits="userSpaceOnUse">
<stop stop-color="#00B4F3"/>
<stop offset="0.3" stop-color="#0077AD"/>
<stop offset="0.64" stop-color="#003866"/>
<stop offset="0.88" stop-color="#001039"/>
<stop offset="1" stop-color="#000128"/>
</linearGradient>
<linearGradient id="paint26_linear_5_19715" x1="76.9968" y1="45.6409" x2="123.947" y2="45.6409" gradientUnits="userSpaceOnUse">
<stop stop-color="#00B4F3"/>
<stop offset="0.3" stop-color="#0077AD"/>
<stop offset="0.64" stop-color="#003866"/>
<stop offset="0.88" stop-color="#001039"/>
<stop offset="1" stop-color="#000128"/>
</linearGradient>
<linearGradient id="paint27_linear_5_19715" x1="96.7175" y1="53.7826" x2="123.947" y2="53.7826" gradientUnits="userSpaceOnUse">
<stop stop-color="#00B4F3"/>
<stop offset="0.3" stop-color="#0077AD"/>
<stop offset="0.64" stop-color="#003866"/>
<stop offset="0.88" stop-color="#001039"/>
<stop offset="1" stop-color="#000128"/>
</linearGradient>
<linearGradient id="paint28_linear_5_19715" x1="119.014" y1="100.091" x2="153.963" y2="100.091" gradientUnits="userSpaceOnUse">
<stop stop-color="#00B4F3"/>
<stop offset="0.3" stop-color="#0077AD"/>
<stop offset="0.64" stop-color="#003866"/>
<stop offset="0.88" stop-color="#001039"/>
<stop offset="1" stop-color="#000128"/>
</linearGradient>
<linearGradient id="paint29_linear_5_19715" x1="119.014" y1="53.7826" x2="153.963" y2="53.7826" gradientUnits="userSpaceOnUse">
<stop stop-color="#00B4F3"/>
<stop offset="0.3" stop-color="#0077AD"/>
<stop offset="0.64" stop-color="#003866"/>
<stop offset="0.88" stop-color="#001039"/>
<stop offset="1" stop-color="#000128"/>
</linearGradient>
<linearGradient id="paint30_linear_5_19715" x1="76.9968" y1="12.5335" x2="153.963" y2="12.5335" gradientUnits="userSpaceOnUse">
<stop stop-color="#00B4F3"/>
<stop offset="0.3" stop-color="#0077AD"/>
<stop offset="0.64" stop-color="#003866"/>
<stop offset="0.88" stop-color="#001039"/>
<stop offset="1" stop-color="#000128"/>
</linearGradient>
<linearGradient id="paint31_linear_5_19715" x1="123.305" y1="44.7374" x2="177.113" y2="44.7374" gradientUnits="userSpaceOnUse">
<stop stop-color="#00B4F3"/>
<stop offset="0.3" stop-color="#0077AD"/>
<stop offset="0.64" stop-color="#003866"/>
<stop offset="0.88" stop-color="#001039"/>
<stop offset="1" stop-color="#000128"/>
</linearGradient>
<linearGradient id="paint32_linear_5_19715" x1="153.313" y1="44.7374" x2="195.119" y2="44.7374" gradientUnits="userSpaceOnUse">
<stop stop-color="#00B4F3"/>
<stop offset="0.3" stop-color="#0077AD"/>
<stop offset="0.64" stop-color="#003866"/>
<stop offset="0.88" stop-color="#001039"/>
<stop offset="1" stop-color="#000128"/>
</linearGradient>
<linearGradient id="paint33_linear_5_19715" x1="123.305" y1="12.5335" x2="177.113" y2="12.5335" gradientUnits="userSpaceOnUse">
<stop stop-color="#00B4F3"/>
<stop offset="0.3" stop-color="#0077AD"/>
<stop offset="0.64" stop-color="#003866"/>
<stop offset="0.88" stop-color="#001039"/>
<stop offset="1" stop-color="#000128"/>
</linearGradient>
<linearGradient id="paint34_linear_5_19715" x1="176.462" y1="37.4487" x2="237.508" y2="37.4487" gradientUnits="userSpaceOnUse">
<stop stop-color="#00B4F3"/>
<stop offset="0.3" stop-color="#0077AD"/>
<stop offset="0.64" stop-color="#003866"/>
<stop offset="0.88" stop-color="#001039"/>
<stop offset="1" stop-color="#000128"/>
</linearGradient>
<linearGradient id="paint35_linear_5_19715" x1="227.914" y1="27.9639" x2="259.434" y2="27.9639" gradientUnits="userSpaceOnUse">
<stop stop-color="#00B4F3"/>
<stop offset="0.3" stop-color="#0077AD"/>
<stop offset="0.64" stop-color="#003866"/>
<stop offset="0.88" stop-color="#001039"/>
<stop offset="1" stop-color="#000128"/>
</linearGradient>
<linearGradient id="paint36_linear_5_19715" x1="176.462" y1="27.9639" x2="237.508" y2="27.9639" gradientUnits="userSpaceOnUse">
<stop stop-color="#00B4F3"/>
<stop offset="0.3" stop-color="#0077AD"/>
<stop offset="0.64" stop-color="#003866"/>
<stop offset="0.88" stop-color="#001039"/>
<stop offset="1" stop-color="#000128"/>
</linearGradient>
<linearGradient id="paint37_linear_5_19715" x1="153.313" y1="9.48459" x2="228.564" y2="9.48459" gradientUnits="userSpaceOnUse">
<stop stop-color="#00B4F3"/>
<stop offset="0.3" stop-color="#0077AD"/>
<stop offset="0.64" stop-color="#003866"/>
<stop offset="0.88" stop-color="#001039"/>
<stop offset="1" stop-color="#000128"/>
</linearGradient>
<linearGradient id="paint38_linear_5_19715" x1="258.783" y1="29.0871" x2="303.166" y2="29.0871" gradientUnits="userSpaceOnUse">
<stop stop-color="#00B4F3"/>
<stop offset="0.3" stop-color="#0077AD"/>
<stop offset="0.64" stop-color="#003866"/>
<stop offset="0.88" stop-color="#001039"/>
<stop offset="1" stop-color="#000128"/>
</linearGradient>
<linearGradient id="paint39_linear_5_19715" x1="227.914" y1="9.48459" x2="286.874" y2="9.48459" gradientUnits="userSpaceOnUse">
<stop stop-color="#00B4F3"/>
<stop offset="0.3" stop-color="#0077AD"/>
<stop offset="0.64" stop-color="#003866"/>
<stop offset="0.88" stop-color="#001039"/>
<stop offset="1" stop-color="#000128"/>
</linearGradient>
<linearGradient id="paint40_linear_5_19715" x1="227.914" y1="6.26676" x2="313.453" y2="6.26676" gradientUnits="userSpaceOnUse">
<stop stop-color="#00B4F3"/>
<stop offset="0.3" stop-color="#0077AD"/>
<stop offset="0.64" stop-color="#003866"/>
<stop offset="0.88" stop-color="#001039"/>
<stop offset="1" stop-color="#000128"/>
</linearGradient>
<linearGradient id="paint41_linear_5_19715" x1="286.223" y1="22.8205" x2="313.453" y2="22.8205" gradientUnits="userSpaceOnUse">
<stop stop-color="#00B4F3"/>
<stop offset="0.3" stop-color="#0077AD"/>
<stop offset="0.64" stop-color="#003866"/>
<stop offset="0.88" stop-color="#001039"/>
<stop offset="1" stop-color="#000128"/>
</linearGradient>
<linearGradient id="paint42_linear_5_19715" x1="170.747" y1="109.86" x2="182.777" y2="80.8456" gradientUnits="userSpaceOnUse">
<stop stop-color="#00B4F3"/>
<stop offset="0.3" stop-color="#0077AD"/>
<stop offset="0.64" stop-color="#003866"/>
<stop offset="0.88" stop-color="#001039"/>
<stop offset="1" stop-color="#000128"/>
</linearGradient>
<linearGradient id="paint43_linear_5_19715" x1="170.747" y1="109.86" x2="182.777" y2="80.8457" gradientUnits="userSpaceOnUse">
<stop stop-color="#00B4F3"/>
<stop offset="0.3" stop-color="#0077AD"/>
<stop offset="0.64" stop-color="#003866"/>
<stop offset="0.88" stop-color="#001039"/>
<stop offset="1" stop-color="#000128"/>
</linearGradient>
<linearGradient id="paint44_linear_5_19715" x1="61.5663" y1="201.271" x2="123.947" y2="201.271" gradientUnits="userSpaceOnUse">
<stop stop-color="#00B4F3"/>
<stop offset="0.3" stop-color="#0077AD"/>
<stop offset="0.64" stop-color="#003866"/>
<stop offset="0.88" stop-color="#001039"/>
<stop offset="1" stop-color="#000128"/>
</linearGradient>
<linearGradient id="paint45_linear_5_19715" x1="102.224" y1="145.461" x2="144.681" y2="145.461" gradientUnits="userSpaceOnUse">
<stop stop-color="#00B4F3"/>
<stop offset="0.3" stop-color="#0077AD"/>
<stop offset="0.64" stop-color="#003866"/>
<stop offset="0.88" stop-color="#001039"/>
<stop offset="1" stop-color="#000128"/>
</linearGradient>
<linearGradient id="paint46_linear_5_19715" x1="29.7678" y1="222.884" x2="45.7387" y2="222.884" gradientUnits="userSpaceOnUse">
<stop stop-color="#00B4F3"/>
<stop offset="0.3" stop-color="#0077AD"/>
<stop offset="0.64" stop-color="#003866"/>
<stop offset="0.88" stop-color="#001039"/>
<stop offset="1" stop-color="#000128"/>
</linearGradient>
<linearGradient id="paint47_linear_5_19715" x1="135.103" y1="203.019" x2="153.608" y2="203.019" gradientUnits="userSpaceOnUse">
<stop stop-color="#00B4F3"/>
<stop offset="0.3" stop-color="#0077AD"/>
<stop offset="0.64" stop-color="#003866"/>
<stop offset="0.88" stop-color="#001039"/>
<stop offset="1" stop-color="#000128"/>
</linearGradient>
<linearGradient id="paint48_linear_5_19715" x1="65.3248" y1="228.99" x2="77.4952" y2="228.99" gradientUnits="userSpaceOnUse">
<stop stop-color="#00B4F3"/>
<stop offset="0.3" stop-color="#0077AD"/>
<stop offset="0.64" stop-color="#003866"/>
<stop offset="0.88" stop-color="#001039"/>
<stop offset="1" stop-color="#000128"/>
</linearGradient>
<radialGradient id="paint49_radial_5_19715" cx="0" cy="0" r="1" gradientUnits="userSpaceOnUse" gradientTransform="translate(18.9235 25.0586) scale(13.0572)">
<stop stop-color="white"/>
<stop offset="0.11" stop-color="#CBCBCB"/>
<stop offset="0.24" stop-color="#969696"/>
<stop offset="0.37" stop-color="#686868"/>
<stop offset="0.5" stop-color="#434343"/>
<stop offset="0.63" stop-color="#252525"/>
<stop offset="0.75" stop-color="#111111"/>
<stop offset="0.88" stop-color="#040404"/>
<stop offset="1"/>
</radialGradient>
<radialGradient id="paint50_radial_5_19715" cx="0" cy="0" r="1" gradientUnits="userSpaceOnUse" gradientTransform="translate(77.326 25.0586) scale(13.0572 13.0572)">
<stop stop-color="white"/>
<stop offset="0.11" stop-color="#CBCBCB"/>
<stop offset="0.24" stop-color="#969696"/>
<stop offset="0.37" stop-color="#686868"/>
<stop offset="0.5" stop-color="#434343"/>
<stop offset="0.63" stop-color="#252525"/>
<stop offset="0.75" stop-color="#111111"/>
<stop offset="0.88" stop-color="#040404"/>
<stop offset="1"/>
</radialGradient>
<radialGradient id="paint51_radial_5_19715" cx="0" cy="0" r="1" gradientUnits="userSpaceOnUse" gradientTransform="translate(123.828 25.5905) scale(13.0572 13.0572)">
<stop stop-color="white"/>
<stop offset="0.11" stop-color="#CBCBCB"/>
<stop offset="0.24" stop-color="#969696"/>
<stop offset="0.37" stop-color="#686868"/>
<stop offset="0.5" stop-color="#434343"/>
<stop offset="0.63" stop-color="#252525"/>
<stop offset="0.75" stop-color="#111111"/>
<stop offset="0.88" stop-color="#040404"/>
<stop offset="1"/>
</radialGradient>
<radialGradient id="paint52_radial_5_19715" cx="0" cy="0" r="1" gradientUnits="userSpaceOnUse" gradientTransform="translate(259.307 19.4929) scale(13.0572 13.0572)">
<stop stop-color="white"/>
<stop offset="0.11" stop-color="#CBCBCB"/>
<stop offset="0.24" stop-color="#969696"/>
<stop offset="0.37" stop-color="#686868"/>
<stop offset="0.5" stop-color="#434343"/>
<stop offset="0.63" stop-color="#252525"/>
<stop offset="0.75" stop-color="#111111"/>
<stop offset="0.88" stop-color="#040404"/>
<stop offset="1"/>
</radialGradient>
<radialGradient id="paint53_radial_5_19715" cx="0" cy="0" r="1" gradientUnits="userSpaceOnUse" gradientTransform="translate(97.0469 66.2234) scale(13.0572)">
<stop stop-color="white"/>
<stop offset="0.11" stop-color="#CBCBCB"/>
<stop offset="0.24" stop-color="#969696"/>
<stop offset="0.37" stop-color="#686868"/>
<stop offset="0.5" stop-color="#434343"/>
<stop offset="0.63" stop-color="#252525"/>
<stop offset="0.75" stop-color="#111111"/>
<stop offset="0.88" stop-color="#040404"/>
<stop offset="1"/>
</radialGradient>
<radialGradient id="paint54_radial_5_19715" cx="0" cy="0" r="1" gradientUnits="userSpaceOnUse" gradientTransform="translate(194.798 49.9146) scale(13.0572 13.0572)">
<stop stop-color="white"/>
<stop offset="0.11" stop-color="#CBCBCB"/>
<stop offset="0.24" stop-color="#969696"/>
<stop offset="0.37" stop-color="#686868"/>
<stop offset="0.5" stop-color="#434343"/>
<stop offset="0.63" stop-color="#252525"/>
<stop offset="0.75" stop-color="#111111"/>
<stop offset="0.88" stop-color="#040404"/>
<stop offset="1"/>
</radialGradient>
<radialGradient id="paint55_radial_5_19715" cx="0" cy="0" r="1" gradientUnits="userSpaceOnUse" gradientTransform="translate(302.836 44.737) scale(13.0571 13.0572)">
<stop stop-color="white"/>
<stop offset="0.11" stop-color="#CBCBCB"/>
<stop offset="0.24" stop-color="#969696"/>
<stop offset="0.37" stop-color="#686868"/>
<stop offset="0.5" stop-color="#434343"/>
<stop offset="0.63" stop-color="#252525"/>
<stop offset="0.75" stop-color="#111111"/>
<stop offset="0.88" stop-color="#040404"/>
<stop offset="1"/>
</radialGradient>
<radialGradient id="paint56_radial_5_19715" cx="0" cy="0" r="1" gradientUnits="userSpaceOnUse" gradientTransform="translate(53.3148 50.0833) scale(13.0572 13.0572)">
<stop stop-color="white"/>
<stop offset="0.11" stop-color="#CBCBCB"/>
<stop offset="0.24" stop-color="#969696"/>
<stop offset="0.37" stop-color="#686868"/>
<stop offset="0.5" stop-color="#434343"/>
<stop offset="0.63" stop-color="#252525"/>
<stop offset="0.75" stop-color="#111111"/>
<stop offset="0.88" stop-color="#040404"/>
<stop offset="1"/>
</radialGradient>
<radialGradient id="paint57_radial_5_19715" cx="0" cy="0" r="1" gradientUnits="userSpaceOnUse" gradientTransform="translate(22.1076 120.749) scale(13.0572 13.0572)">
<stop stop-color="white"/>
<stop offset="0.11" stop-color="#CBCBCB"/>
<stop offset="0.24" stop-color="#969696"/>
<stop offset="0.37" stop-color="#686868"/>
<stop offset="0.5" stop-color="#434343"/>
<stop offset="0.63" stop-color="#252525"/>
<stop offset="0.75" stop-color="#111111"/>
<stop offset="0.88" stop-color="#040404"/>
<stop offset="1"/>
</radialGradient>
<radialGradient id="paint58_radial_5_19715" cx="0" cy="0" r="1" gradientUnits="userSpaceOnUse" gradientTransform="translate(111.793 114.237) scale(13.0572 13.0572)">
<stop stop-color="white"/>
<stop offset="0.11" stop-color="#CBCBCB"/>
<stop offset="0.24" stop-color="#969696"/>
<stop offset="0.37" stop-color="#686868"/>
<stop offset="0.5" stop-color="#434343"/>
<stop offset="0.63" stop-color="#252525"/>
<stop offset="0.75" stop-color="#111111"/>
<stop offset="0.88" stop-color="#040404"/>
<stop offset="1"/>
</radialGradient>
<radialGradient id="paint59_radial_5_19715" cx="0" cy="0" r="1" gradientUnits="userSpaceOnUse" gradientTransform="translate(77.326 139.102) scale(13.0572)">
<stop stop-color="white"/>
<stop offset="0.11" stop-color="#CBCBCB"/>
<stop offset="0.24" stop-color="#969696"/>
<stop offset="0.37" stop-color="#686868"/>
<stop offset="0.5" stop-color="#434343"/>
<stop offset="0.63" stop-color="#252525"/>
<stop offset="0.75" stop-color="#111111"/>
<stop offset="0.88" stop-color="#040404"/>
<stop offset="1"/>
</radialGradient>
</defs>
</svg>
