<svg width="411" height="356" viewBox="0 0 411 356" fill="none" xmlns="http://www.w3.org/2000/svg">
<g clip-path="url(#clip0_40_8726)">
<path d="M209.235 192.873L95.8976 118.866L237.834 83.7334L209.235 192.873Z" stroke="#DDDDDD" stroke-width="0.7021" stroke-miterlimit="10" stroke-linecap="round" stroke-linejoin="round"/>
<path d="M299.806 182.762L321.377 294.858L228.912 263.072L299.806 182.762Z" stroke="#DDDDDD" stroke-width="0.7021" stroke-miterlimit="10" stroke-linecap="round" stroke-linejoin="round"/>
<path d="M26.5578 181.226L95.8971 118.866L110.969 253.504L26.5578 181.226Z" stroke="#DDDDDD" stroke-width="0.3511" stroke-miterlimit="10" stroke-linecap="round" stroke-linejoin="round"/>
<path d="M110.969 253.504L-21.0527 334.593L-0.164094 146.971L110.969 253.504Z" stroke="#DDDDDD" stroke-width="0.7021" stroke-miterlimit="10" stroke-linecap="round" stroke-linejoin="round"/>
<path d="M228.912 263.072L110.969 253.504L209.235 192.873L228.912 263.072Z" stroke="#DDDDDD" stroke-width="0.7021" stroke-miterlimit="10" stroke-linecap="round" stroke-linejoin="round"/>
<path d="M18.5975 310.235L160.834 351.891L110.97 253.504L18.5975 310.235Z" stroke="#DDDDDD" stroke-width="0.7021" stroke-miterlimit="10" stroke-linecap="round" stroke-linejoin="round"/>
<path d="M228.913 263.072L158.346 193.915L249.104 152.166L228.913 263.072Z" stroke="#DDDDDD" stroke-width="0.7021" stroke-miterlimit="10" stroke-linecap="round" stroke-linejoin="round"/>
<path d="M158.345 193.915L110.969 253.504L228.912 263.072L158.345 193.915Z" stroke="#DDDDDD" stroke-width="0.7021" stroke-miterlimit="10" stroke-linecap="round" stroke-linejoin="round"/>
<path d="M158.346 193.915L-0.162941 146.971H138.936L158.346 193.915Z" stroke="#DDDDDD" stroke-width="0.3511" stroke-miterlimit="10" stroke-linecap="round" stroke-linejoin="round"/>
<path d="M-0.0546875 8.02058L-80.8097 169.036L-0.16383 146.971L-0.0546875 8.02058Z" stroke="#DDDDDD" stroke-width="0.7021" stroke-miterlimit="10" stroke-linecap="round" stroke-linejoin="round"/>
<path d="M110.969 253.504L-80.8099 169.036L18.5963 310.235L110.969 253.504Z" stroke="#DDDDDD" stroke-width="0.7021" stroke-miterlimit="10" stroke-linecap="round" stroke-linejoin="round"/>
<path d="M299.949 182.926L209.236 192.873L249.103 152.166L299.949 182.926Z" stroke="#DDDDDD" stroke-width="0.7021" stroke-miterlimit="10" stroke-linecap="round" stroke-linejoin="round"/>
<path d="M157.826 193.937L26.5578 181.226L63.0364 258.48L157.826 193.937Z" stroke="#DDDDDD" stroke-width="0.3511" stroke-miterlimit="10" stroke-linecap="round" stroke-linejoin="round"/>
<path d="M228.913 263.072L259.23 355.901L160.834 351.891L228.913 263.072Z" stroke="#DDDDDD" stroke-width="0.3511" stroke-miterlimit="10" stroke-linecap="round" stroke-linejoin="round"/>
<path d="M65.564 309.396L160.834 351.891L110.97 253.504L65.564 309.396Z" stroke="#DDDDDD" stroke-width="0.3511" stroke-miterlimit="10" stroke-linecap="round" stroke-linejoin="round"/>
<path d="M304.74 289.361L250.8 327.467L299.949 182.926" stroke="#DDDDDD" stroke-width="0.5" stroke-miterlimit="10" stroke-linecap="round" stroke-linejoin="round"/>
<path d="M177.352 212.546L160.834 351.891" stroke="#DDDDDD" stroke-width="0.3511" stroke-miterlimit="10" stroke-linecap="round" stroke-linejoin="round"/>
<path d="M65.5633 309.396L228.912 263.072" stroke="#DDDDDD" stroke-width="0.3511" stroke-miterlimit="10" stroke-linecap="round" stroke-linejoin="round"/>
<path d="M249.104 152.166L237.835 83.7334L262.527 61.1145L250.522 17.1164" stroke="#DDDDDD" stroke-width="0.3511" stroke-miterlimit="10" stroke-linecap="round" stroke-linejoin="round"/>
<path d="M169.941 100.543L157.827 193.937" stroke="#DDDDDD" stroke-width="0.3511" stroke-miterlimit="10" stroke-linecap="round" stroke-linejoin="round"/>
<path d="M321.377 294.858L209.235 192.873L169.94 100.543L82.6099 52.8964L95.8972 118.866" stroke="#DDDDDD" stroke-width="0.3511" stroke-miterlimit="10" stroke-linecap="round" stroke-linejoin="round"/>
<path d="M250.37 85.7907L263.182 146.686L305.969 171.093L250.37 85.7907Z" stroke="#DDDDDD" stroke-width="0.7021" stroke-miterlimit="10" stroke-linecap="round" stroke-linejoin="round"/>
<path d="M336.154 243.673L321.378 186.185L379.705 207.619L340.242 276.079" stroke="#DDDDDD" stroke-width="0.7021" stroke-miterlimit="10" stroke-linecap="round" stroke-linejoin="round"/>
<path d="M384.273 197.558L323.13 172.519L288.48 111.773L384.273 197.558Z" stroke="#DDDDDD" stroke-width="0.3511" stroke-miterlimit="10" stroke-linecap="round" stroke-linejoin="round"/>
<path d="M231.188 72.9808L171.365 88.5282L89.7149 44.6838L231.188 72.9808Z" stroke="#DDDDDD" stroke-width="0.3511" stroke-miterlimit="10" stroke-linecap="round" stroke-linejoin="round"/>
<path d="M234.221 19.1682L243.678 56.5501L177.351 39.6641L234.221 19.1682Z" stroke="#DDDDDD" stroke-width="0.3511" stroke-miterlimit="10" stroke-linecap="round" stroke-linejoin="round"/>
<path d="M297.095 182.97C297.095 184.303 298.17 185.384 299.496 185.384C300.822 185.384 301.896 184.303 301.896 182.97C301.896 181.637 300.822 180.556 299.496 180.556C298.17 180.562 297.095 181.637 297.095 182.97Z" fill="#CCCCCC"/>
<path d="M226.512 263.072C226.512 264.405 227.587 265.486 228.913 265.486C230.239 265.486 231.314 264.405 231.314 263.072C231.314 261.739 230.239 260.658 228.913 260.658C227.587 260.664 226.512 261.744 226.512 263.072Z" fill="#CCCCCC"/>
<path d="M155.432 193.937C155.432 195.27 156.507 196.351 157.833 196.351C159.159 196.351 160.234 195.27 160.234 193.937C160.234 192.604 159.159 191.523 157.833 191.523C156.502 191.523 155.432 192.604 155.432 193.937Z" fill="#CCCCCC"/>
<path d="M260.78 146.686C260.78 148.019 261.855 149.1 263.181 149.1C264.507 149.1 265.582 148.019 265.582 146.686C265.582 145.353 264.507 144.272 263.181 144.272C261.855 144.277 260.78 145.358 260.78 146.686Z" fill="#CCCCCC"/>
<path d="M377.309 207.619C377.309 208.952 378.384 210.033 379.71 210.033C381.036 210.033 382.111 208.952 382.111 207.619C382.111 206.286 381.036 205.205 379.71 205.205C378.379 205.205 377.309 206.286 377.309 207.619Z" fill="#CCCCCC"/>
<path d="M108.569 253.504C108.569 254.837 109.644 255.918 110.97 255.918C112.296 255.918 113.371 254.837 113.371 253.504C113.371 252.171 112.296 251.091 110.97 251.091C109.644 251.091 108.569 252.171 108.569 253.504Z" fill="#CCCCCC"/>
<path d="M235.438 83.7334C235.438 85.0665 236.513 86.1473 237.839 86.1473C239.165 86.1473 240.24 85.0665 240.24 83.7334C240.24 82.4003 239.165 81.3195 237.839 81.3195C236.513 81.3195 235.438 82.4058 235.438 83.7334Z" fill="#CCCCCC"/>
<path d="M206.835 192.873C206.835 194.206 207.91 195.287 209.236 195.287C210.562 195.287 211.637 194.206 211.637 192.873C211.637 191.54 210.562 190.459 209.236 190.459C207.91 190.459 206.835 191.54 206.835 192.873Z" fill="#CCCCCC"/>
<path d="M93.5027 118.866C93.5027 120.199 94.5777 121.28 95.9037 121.28C97.2297 121.28 98.3047 120.199 98.3047 118.866C98.3047 117.533 97.2297 116.452 95.9037 116.452C94.5722 116.452 93.5027 117.533 93.5027 118.866Z" fill="#CCCCCC"/>
<path d="M318.977 294.858C318.977 296.191 320.052 297.272 321.378 297.272C322.704 297.272 323.779 296.191 323.779 294.858C323.779 293.525 322.704 292.444 321.378 292.444C320.052 292.444 318.977 293.525 318.977 294.858Z" fill="#CCCCCC"/>
<path d="M323.13 173.726C322.467 173.726 321.929 173.186 321.929 172.519C321.929 171.853 322.467 171.313 323.13 171.313C323.793 171.313 324.33 171.853 324.33 172.519C324.33 173.186 323.793 173.726 323.13 173.726Z" fill="#CCCCCC"/>
<path d="M176.152 39.6641C176.152 40.3279 176.687 40.871 177.352 40.871C178.013 40.871 178.553 40.3334 178.553 39.6641C178.553 39.0003 178.018 38.4571 177.352 38.4571C176.692 38.4571 176.152 38.9948 176.152 39.6641Z" fill="#CCCCCC"/>
<path d="M89.7155 45.8907C89.0525 45.8907 88.5151 45.3503 88.5151 44.6838C88.5151 44.0172 89.0525 43.4769 89.7155 43.4769C90.3785 43.4769 90.916 44.0172 90.916 44.6838C90.916 45.3503 90.3785 45.8907 89.7155 45.8907Z" fill="#CCCCCC"/>
<path d="M250.522 17.1164C249.859 17.1164 249.322 16.5761 249.322 15.9095C249.322 15.2429 249.859 14.7026 250.522 14.7026C251.185 14.7026 251.723 15.2429 251.723 15.9095C251.723 16.5761 251.185 17.1164 250.522 17.1164Z" fill="#CCCCCC"/>
<path d="M249.298 86.1473C249.298 86.8111 249.833 87.3542 250.499 87.3542C251.159 87.3542 251.699 86.8166 251.699 86.1473C251.699 85.478 251.164 84.9403 250.499 84.9403C249.833 84.9403 249.298 85.4835 249.298 86.1473Z" fill="#CCCCCC"/>
<path d="M177.352 213.753C176.689 213.753 176.152 213.212 176.152 212.546C176.152 211.879 176.689 211.339 177.352 211.339C178.015 211.339 178.553 211.879 178.553 212.546C178.553 213.212 178.015 213.753 177.352 213.753Z" fill="#CCCCCC" stroke="#DDDDDD" stroke-miterlimit="10"/>
<path d="M254.909 235.181C254.246 235.181 253.708 234.641 253.708 233.974C253.708 233.307 254.246 232.767 254.909 232.767C255.572 232.767 256.109 233.307 256.109 233.974C256.109 234.641 255.572 235.181 254.909 235.181Z" fill="#CCCCCC" stroke="#DDDDDD" stroke-miterlimit="10"/>
<path d="M168.058 279.64C168.058 280.304 168.593 280.847 169.258 280.847C169.924 280.847 170.459 280.309 170.459 279.64C170.459 278.976 169.924 278.433 169.258 278.433C168.593 278.433 168.058 278.976 168.058 279.64Z" fill="#CCCCCC"/>
<path d="M169.94 101.75C169.277 101.75 168.74 101.209 168.74 100.543C168.74 99.8761 169.277 99.3357 169.94 99.3357C170.603 99.3357 171.141 99.8761 171.141 100.543C171.141 101.209 170.603 101.75 169.94 101.75Z" fill="#CCCCCC" stroke="#DDDDDD" stroke-miterlimit="10"/>
<path d="M201.782 249.516C200.729 249.516 200.729 247.87 201.782 247.87C202.836 247.87 202.836 249.516 201.782 249.516Z" fill="#DDDDDD"/>
<path d="M176.812 146.828C175.759 146.828 175.759 145.183 176.812 145.183C177.865 145.183 177.865 146.828 176.812 146.828Z" fill="#DDDDDD"/>
<path d="M211.767 113.512C210.714 113.512 210.714 111.866 211.767 111.866C212.82 111.866 212.82 113.512 211.767 113.512Z" fill="#DDDDDD"/>
<path d="M294.841 250.887C293.788 250.887 293.788 249.242 294.841 249.242C295.894 249.242 295.9 250.887 294.841 250.887Z" fill="#DDDDDD"/>
<path d="M367.929 297.897C366.876 297.897 366.876 296.252 367.929 296.252C368.982 296.252 368.987 297.897 367.929 297.897Z" fill="#DDDDDD"/>
<path d="M391.993 270.511C390.94 270.511 390.94 268.865 391.993 268.865C393.046 268.865 393.046 270.511 391.993 270.511Z" fill="#DDDDDD"/>
<path d="M395.622 306.11C394.569 306.11 394.569 304.464 395.622 304.464C396.675 304.464 396.681 306.11 395.622 306.11Z" fill="#DDDDDD"/>
<path d="M281.222 91.145C280.169 91.145 280.169 89.4992 281.222 89.4992C282.28 89.4992 282.28 91.145 281.222 91.145Z" fill="#DDDDDD"/>
<path d="M339.784 119.689C338.731 119.689 338.731 118.043 339.784 118.043C340.837 118.043 340.843 119.689 339.784 119.689Z" fill="#DDDDDD"/>
<path d="M133.228 20.4026C132.174 20.4026 132.174 18.7568 133.228 18.7568C134.281 18.7568 134.286 20.4026 133.228 20.4026Z" fill="#DDDDDD"/>
<path d="M137.769 272.338C136.715 272.338 136.715 270.692 137.769 270.692C138.822 270.692 138.827 272.338 137.769 272.338Z" fill="#DDDDDD"/>
<path d="M95.0968 211.635C94.0436 211.635 94.0436 209.989 95.0968 209.989C96.1499 209.989 96.1554 211.635 95.0968 211.635Z" fill="#DDDDDD"/>
<path d="M188.161 297.437C187.108 297.437 187.108 295.791 188.161 295.791C189.214 295.791 189.214 297.437 188.161 297.437Z" fill="#DDDDDD"/>
<path d="M272.148 200.679C271.094 200.679 271.094 199.033 272.148 199.033C273.201 199.033 273.201 200.679 272.148 200.679Z" fill="#DDDDDD"/>
<path d="M115.527 97.5363C114.473 97.5363 114.473 95.8905 115.527 95.8905C116.58 95.8905 116.58 97.5363 115.527 97.5363Z" fill="#DDDDDD"/>
<path d="M110.532 313.412C109.479 313.412 109.479 311.766 110.532 311.766C111.586 311.766 111.586 313.412 110.532 313.412Z" fill="#DDDDDD"/>
<path d="M407.426 186.898C405.32 186.898 405.314 183.607 407.426 183.607C409.532 183.607 409.538 186.898 407.426 186.898Z" fill="#DDDDDD"/>
<path d="M339.783 309.215C337.677 309.215 337.672 305.923 339.783 305.923C341.89 305.923 341.895 309.215 339.783 309.215Z" fill="#DDDDDD"/>
<path d="M295.031 67.78C292.925 67.78 292.92 64.4884 295.031 64.4884C297.138 64.4884 297.143 67.78 295.031 67.78Z" fill="#DDDDDD"/>
<path d="M123.696 207.893C121.589 207.893 121.584 204.602 123.696 204.602C125.802 204.602 125.807 207.893 123.696 207.893Z" fill="#DDDDDD"/>
<path d="M105.539 23.5077C103.433 23.5077 103.428 20.216 105.539 20.216C107.646 20.216 107.646 23.5077 105.539 23.5077Z" fill="#DDDDDD"/>
<path d="M175.905 76.4534C173.798 76.4534 173.793 73.1618 175.905 73.1618C178.011 73.1618 178.011 76.4534 175.905 76.4534Z" fill="#DDDDDD"/>
<path d="M278.498 271.789C276.392 271.789 276.387 268.498 278.498 268.498C280.605 268.498 280.61 271.789 278.498 271.789Z" fill="#DDDDDD"/>
<path d="M276.687 226.283C276.158 226.283 276.158 225.46 276.687 225.46C277.211 225.46 277.211 226.283 276.687 226.283Z" fill="#DDDDDD"/>
<path d="M154.111 304.788C153.582 304.788 153.582 303.965 154.111 303.965C154.64 303.965 154.64 304.788 154.111 304.788Z" fill="#DDDDDD"/>
<path d="M165.007 244.996C164.478 244.996 164.478 244.173 165.007 244.173C165.537 244.173 165.537 244.996 165.007 244.996Z" fill="#DDDDDD"/>
<path d="M364.753 268.273C364.224 268.273 364.224 267.45 364.753 267.45C365.283 267.45 365.283 268.273 364.753 268.273Z" fill="#DDDDDD"/>
<path d="M342.511 289.268C341.982 289.268 341.982 288.445 342.511 288.445C343.035 288.445 343.035 289.268 342.511 289.268Z" fill="#DDDDDD"/>
<path d="M382.914 280.594C382.384 280.594 382.384 279.772 382.914 279.772C383.438 279.772 383.438 280.594 382.914 280.594Z" fill="#DDDDDD"/>
<path d="M343.871 223.545C343.341 223.545 343.341 222.722 343.871 222.722C344.4 222.722 344.4 223.545 343.871 223.545Z" fill="#DDDDDD"/>
<path d="M339.332 252.758C338.802 252.758 338.802 251.935 339.332 251.935C339.861 251.935 339.861 252.758 339.332 252.758Z" fill="#DDDDDD"/>
<path d="M315.724 244.54C315.195 244.54 315.195 243.717 315.724 243.717C316.253 243.717 316.253 244.54 315.724 244.54Z" fill="#DDDDDD"/>
<path d="M319.812 93.4711C319.283 93.4711 319.283 92.6482 319.812 92.6482C320.336 92.6482 320.341 93.4711 319.812 93.4711Z" fill="#DDDDDD"/>
<path d="M370.659 112.392C369.867 112.392 369.867 111.158 370.659 111.158C371.444 111.158 371.45 112.392 370.659 112.392Z" fill="#DDDDDD"/>
<path d="M407.425 132.724C406.896 132.724 406.896 131.901 407.425 131.901C407.955 131.901 407.955 132.724 407.425 132.724Z" fill="#DDDDDD"/>
<path d="M352.951 150.729C352.16 150.729 352.16 149.495 352.951 149.495C353.743 149.495 353.743 150.729 352.951 150.729Z" fill="#DDDDDD"/>
<path d="M323.13 75.2191C322.601 75.2191 322.601 74.3962 323.13 74.3962C323.66 74.3962 323.66 75.2191 323.13 75.2191Z" fill="#DDDDDD"/>
<path d="M377.31 132.724C376.781 132.724 376.781 131.901 377.31 131.901C377.834 131.901 377.834 132.724 377.31 132.724Z" fill="#DDDDDD"/>
<path d="M392.447 155.085C391.918 155.085 391.918 154.262 392.447 154.262C392.971 154.262 392.971 155.085 392.447 155.085Z" fill="#DDDDDD"/>
<path d="M342.511 174.714C341.982 174.714 341.982 173.891 342.511 173.891C343.035 173.891 343.035 174.714 342.511 174.714Z" fill="#DDDDDD"/>
<path d="M399.711 238.61C399.181 238.61 399.181 237.787 399.711 237.787C400.234 237.787 400.24 238.61 399.711 238.61Z" fill="#DDDDDD"/>
<path d="M304.834 103.511C304.304 103.511 304.304 102.688 304.834 102.688C305.358 102.688 305.358 103.511 304.834 103.511Z" fill="#DDDDDD"/>
<path d="M287.578 29.7837C286.787 29.7837 286.787 28.5493 287.578 28.5493C288.37 28.5493 288.37 29.7837 287.578 29.7837Z" fill="#DDDDDD"/>
<path d="M275.322 38.2487C274.793 38.2487 274.793 37.4258 275.322 37.4258C275.846 37.4258 275.851 38.2487 275.322 38.2487Z" fill="#DDDDDD"/>
<path d="M259.433 1.73358C258.904 1.73358 258.904 0.910675 259.433 0.910675C259.962 0.910675 259.962 1.73358 259.433 1.73358Z" fill="#DDDDDD"/>
<path d="M214.943 0.822906C214.414 0.822906 214.414 0 214.943 0C215.472 0 215.472 0.822906 214.943 0.822906Z" fill="#DDDDDD"/>
<path d="M165.007 32.7736C164.478 32.7736 164.478 31.9507 165.007 31.9507C165.537 31.9507 165.537 32.7736 165.007 32.7736Z" fill="#DDDDDD"/>
<path d="M213.126 63.3473C212.597 63.3473 212.597 62.5244 213.126 62.5244C213.656 62.5244 213.656 63.3473 213.126 63.3473Z" fill="#DDDDDD"/>
<path d="M154.57 66.5456C154.041 66.5456 154.041 65.7227 154.57 65.7227C155.094 65.7227 155.094 66.5456 154.57 66.5456Z" fill="#DDDDDD"/>
<path d="M147.3 8.12482C146.771 8.12482 146.771 7.30192 147.3 7.30192C147.83 7.30192 147.83 8.12482 147.3 8.12482Z" fill="#DDDDDD"/>
<path d="M96.0075 88.4514C95.4782 88.4514 95.4782 87.6285 96.0075 87.6285C96.5314 87.6285 96.5314 88.4514 96.0075 88.4514Z" fill="#DDDDDD"/>
<path d="M189.978 115.382C189.449 115.382 189.449 114.559 189.978 114.559C190.502 114.559 190.502 115.382 189.978 115.382Z" fill="#DDDDDD"/>
<path d="M144.125 129.07C143.595 129.07 143.595 128.247 144.125 128.247C144.654 128.247 144.654 129.07 144.125 129.07Z" fill="#DDDDDD"/>
<path d="M123.242 164.214C122.712 164.214 122.712 163.391 123.242 163.391C123.771 163.391 123.771 164.214 123.242 164.214Z" fill="#DDDDDD"/>
<path d="M147.759 180.189C147.23 180.189 147.23 179.366 147.759 179.366C148.283 179.366 148.283 180.189 147.759 180.189Z" fill="#DDDDDD"/>
<path d="M234.468 289.723C233.939 289.723 233.939 288.9 234.468 288.9C234.992 288.9 234.992 289.723 234.468 289.723Z" fill="#DDDDDD"/>
<path d="M253.076 280.594C252.546 280.594 252.546 279.772 253.076 279.772C253.605 279.772 253.605 280.594 253.076 280.594Z" fill="#DDDDDD"/>
<path d="M252.623 246.367C252.093 246.367 252.093 245.544 252.623 245.544C253.152 245.544 253.152 246.367 252.623 246.367Z" fill="#DDDDDD"/>
<path d="M229.927 199.813C229.398 199.813 229.398 198.99 229.927 198.99C230.451 198.99 230.451 199.813 229.927 199.813Z" fill="#DDDDDD"/>
<path d="M233.556 146.872C233.027 146.872 233.027 146.049 233.556 146.049C234.085 146.049 234.085 146.872 233.556 146.872Z" fill="#DDDDDD"/>
<path d="M255.345 171.06C254.816 171.06 254.816 170.237 255.345 170.237C255.875 170.237 255.875 171.06 255.345 171.06Z" fill="#DDDDDD"/>
<path d="M386.542 244.996C386.013 244.996 386.013 244.173 386.542 244.173C387.072 244.173 387.072 244.996 386.542 244.996Z" fill="#DDDDDD"/>
<path d="M410.607 285.159C410.078 285.159 410.078 284.336 410.607 284.336C411.131 284.336 411.131 285.159 410.607 285.159Z" fill="#DDDDDD"/>
<path d="M358.108 318.234C358.261 318.08 358.408 317.932 358.561 317.779C358.599 317.74 358.643 317.713 358.692 317.691C358.741 317.664 358.796 317.653 358.85 317.658C358.905 317.658 358.959 317.669 359.008 317.691C359.057 317.707 359.101 317.735 359.139 317.779C359.21 317.856 359.265 317.96 359.259 318.07C359.254 318.179 359.216 318.283 359.139 318.36C358.987 318.514 358.839 318.662 358.686 318.816C358.648 318.854 358.605 318.881 358.555 318.903C358.506 318.931 358.452 318.942 358.397 318.936C358.343 318.936 358.288 318.925 358.239 318.903C358.19 318.887 358.146 318.86 358.108 318.816C358.037 318.739 357.983 318.635 357.988 318.525C357.993 318.415 358.032 318.311 358.108 318.234Z" fill="#DDDDDD"/>
</g>
<defs>
<clipPath id="clip0_40_8726">
<rect width="492" height="356" fill="white" transform="matrix(-1 0 0 1 411 0)"/>
</clipPath>
</defs>
</svg>
